<mxfile host="app.diagrams.net" modified="2024-02-01T15:04:17.452Z" agent="Mozilla/5.0 (Macintosh; Intel Mac OS X 10_15_7) AppleWebKit/605.1.15 (KHTML, like Gecko) Version/16.1 Safari/605.1.15" etag="vIySsqLnFcW-3xRKwpcF" version="23.1.1" type="device">
  <diagram name="Page-1" id="SRmPoyV3rx-JNoZh7j-V">
    <mxGraphModel dx="2895" dy="1094" grid="1" gridSize="10" guides="1" tooltips="1" connect="1" arrows="1" fold="1" page="1" pageScale="1" pageWidth="827" pageHeight="1169" math="0" shadow="0">
      <root>
        <mxCell id="0" />
        <mxCell id="1" parent="0" />
        <mxCell id="uYADebYyoeD6eWLToY8Z-48" value="" style="rounded=0;whiteSpace=wrap;html=1;fontSize=16;fillColor=#f9f7ed;strokeColor=none;gradientColor=none;" parent="1" vertex="1">
          <mxGeometry x="550" y="125" width="260" height="292" as="geometry" />
        </mxCell>
        <UserObject label="" plantUmlData="{&quot;data&quot;:&quot;@startuml\nclass Animal &lt;&lt;I_Animal&gt;&gt;{\n  - name: String\n  - age: int\n  - weight: double\n  - gender: String\n  - preexistingConditions: String[]\n  - animalKind: AnimalKind\n\n  + Animal(name: String, age: int, weight: double, gender: String)\n  + Animal(name: String, age: int, weight: double, gender: String, preexistingConditions: String[])\n  + addPreexistingCondition(conditions: String[]): void\n  - isRepeated(array: String[], str: String): boolean\n  + getPreexistingCondition(): String[]\n  + setAnimalKind(kind: String): boolean\n  + setWeight(weight: double): void\n  + getName(): String\n  + getAge(): int\n  + getWeight(): double\n  + getAnimalKind(): AnimalKind\n  + getGender(): String\n}\n@enduml\n&quot;,&quot;format&quot;:&quot;svg&quot;}" id="kbrCUC_pbYBXq86tmqO2-3">
          <mxCell style="shape=image;noLabel=1;verticalAlign=top;aspect=fixed;imageAspect=0;image=data:image/svg+xml,PD94bWwgdmVyc2lvbj0iMS4wIiBlbmNvZGluZz0idXMtYXNjaWkiIHN0YW5kYWxvbmU9Im5vIj8+PHN2ZyB4bWxucz0iaHR0cDovL3d3dy53My5vcmcvMjAwMC9zdmciIHhtbG5zOnhsaW5rPSJodHRwOi8vd3d3LnczLm9yZy8xOTk5L3hsaW5rIiBjb250ZW50U3R5bGVUeXBlPSJ0ZXh0L2NzcyIgaGVpZ2h0PSIzNDRweCIgcHJlc2VydmVBc3BlY3RSYXRpbz0ibm9uZSIgc3R5bGU9IndpZHRoOjcxN3B4O2hlaWdodDozNDRweDtiYWNrZ3JvdW5kOiNGRkZGRkY7IiB2ZXJzaW9uPSIxLjEiIHZpZXdCb3g9IjAgMCA3MTcgMzQ0IiB3aWR0aD0iNzE3cHgiIHpvb21BbmRQYW49Im1hZ25pZnkiPjxkZWZzLz48Zz48IS0tY2xhc3MgQW5pbWFsLS0+PGcgaWQ9ImVsZW1fQW5pbWFsIj48cmVjdCBjb2RlTGluZT0iMSIgZmlsbD0iI0YxRjFGMSIgaGVpZ2h0PSIzMjMuNTQ2OSIgaWQ9IkFuaW1hbCIgcng9IjIuNSIgcnk9IjIuNSIgc3R5bGU9InN0cm9rZTojMTgxODE4O3N0cm9rZS13aWR0aDowLjU7IiB3aWR0aD0iNjk2IiB4PSI3IiB5PSI3Ii8+PGVsbGlwc2UgY3g9IjMyMS4yNSIgY3k9IjI1LjkxNDEiIGZpbGw9IiNBREQxQjIiIHJ4PSIxMSIgcnk9IjExIiBzdHlsZT0ic3Ryb2tlOiMxODE4MTg7c3Ryb2tlLXdpZHRoOjEuMDsiLz48cGF0aCBkPSJNMzE4Ljg3NSwzMC4xNjQxIEwzMTguODc1LDMxLjkxNDEgTDMyMy44MTI1LDMxLjkxNDEgTDMyMy44MTI1LDMwLjE2NDEgTDMxOC44NzUsMzAuMTY0MSBaIE0zMTkuNTYyNSwzMC44NTE2IFEzMTkuNTYyNSwzMC44NTE2IDMxOS41NjI1LDIxLjY2NDEgTDMxNy44MTI1LDIxLjY2NDEgUTMxNy44MTI1LDIxLjY2NDEgMzE3LjgxMjUsMzAuODUxNiBMMzE5LjU2MjUsMzAuODUxNiBaIE0zMjMuMTI1LDMwLjg1MTYgTDMyNC44NzUsMzAuODUxNiBRMzI0Ljg3NSwzMC44NTE2IDMyNC44NzUsMjguMDM5MSBMMzIzLjEyNSwyOC4wMzkxIFEzMjMuMTI1LDI4LjAzOTEgMzIzLjEyNSwzMC44NTE2IFogTTMyMy4xMjUsMjEuNjY0MSBRMzIzLjEyNSwyMS42NjQxIDMyMy4xMjUsMjQuNDc2NiBMMzI0Ljg3NSwyNC40NzY2IFEzMjQuODc1LDI0LjQ3NjYgMzI0Ljg3NSwyMS42NjQxIEwzMjMuMTI1LDIxLjY2NDEgWiBNMzE4Ljg3NSwyMi4zNTE2IEwzMjMuODEyNSwyMi4zNTE2IEwzMjMuODEyNSwyMC42MDE2IEwzMTguODc1LDIwLjYwMTYgTDMxOC44NzUsMjIuMzUxNiBaICIgZmlsbD0iIzAwMDAwMCIvPjx0ZXh0IGZpbGw9IiMwMDAwMDAiIGZvbnQtZmFtaWx5PSJzYW5zLXNlcmlmIiBmb250LXNpemU9IjEyIiBmb250LXN0eWxlPSJpdGFsaWMiIGxlbmd0aEFkanVzdD0ic3BhY2luZyIgdGV4dExlbmd0aD0iNjMiIHg9IjMzOS43NSIgeT0iMjMuMzQzOCI+JiMxNzE7SV9BbmltYWwmIzE4Nzs8L3RleHQ+PHRleHQgZmlsbD0iIzAwMDAwMCIgZm9udC1mYW1pbHk9InNhbnMtc2VyaWYiIGZvbnQtc2l6ZT0iMTQiIGxlbmd0aEFkanVzdD0ic3BhY2luZyIgdGV4dExlbmd0aD0iNDMiIHg9IjM0OS43NSIgeT0iMzguMDc4MSI+QW5pbWFsPC90ZXh0PjxsaW5lIHN0eWxlPSJzdHJva2U6IzE4MTgxODtzdHJva2Utd2lkdGg6MC41OyIgeDE9IjgiIHgyPSI3MDIiIHkxPSI0NC44MjgxIiB5Mj0iNDQuODI4MSIvPjxyZWN0IGZpbGw9Im5vbmUiIGhlaWdodD0iNiIgc3R5bGU9InN0cm9rZTojQzgyOTMwO3N0cm9rZS13aWR0aDoxLjA7IiB3aWR0aD0iNiIgeD0iMTUiIHk9IjU0LjgyMDMiLz48dGV4dCBmaWxsPSIjMDAwMDAwIiBmb250LWZhbWlseT0ic2Fucy1zZXJpZiIgZm9udC1zaXplPSIxNCIgbGVuZ3RoQWRqdXN0PSJzcGFjaW5nIiB0ZXh0TGVuZ3RoPSI4NSIgeD0iMjciIHk9IjYyLjA2MjUiPm5hbWU6IFN0cmluZzwvdGV4dD48cmVjdCBmaWxsPSJub25lIiBoZWlnaHQ9IjYiIHN0eWxlPSJzdHJva2U6I0M4MjkzMDtzdHJva2Utd2lkdGg6MS4wOyIgd2lkdGg9IjYiIHg9IjE1IiB5PSI2OS44MDQ3Ii8+PHRleHQgZmlsbD0iIzAwMDAwMCIgZm9udC1mYW1pbHk9InNhbnMtc2VyaWYiIGZvbnQtc2l6ZT0iMTQiIGxlbmd0aEFkanVzdD0ic3BhY2luZyIgdGV4dExlbmd0aD0iNTYiIHg9IjI3IiB5PSI3Ny4wNDY5Ij5hZ2U6IGludDwvdGV4dD48cmVjdCBmaWxsPSJub25lIiBoZWlnaHQ9IjYiIHN0eWxlPSJzdHJva2U6I0M4MjkzMDtzdHJva2Utd2lkdGg6MS4wOyIgd2lkdGg9IjYiIHg9IjE1IiB5PSI4NC43ODkxIi8+PHRleHQgZmlsbD0iIzAwMDAwMCIgZm9udC1mYW1pbHk9InNhbnMtc2VyaWYiIGZvbnQtc2l6ZT0iMTQiIGxlbmd0aEFkanVzdD0ic3BhY2luZyIgdGV4dExlbmd0aD0iOTkiIHg9IjI3IiB5PSI5Mi4wMzEzIj53ZWlnaHQ6IGRvdWJsZTwvdGV4dD48cmVjdCBmaWxsPSJub25lIiBoZWlnaHQ9IjYiIHN0eWxlPSJzdHJva2U6I0M4MjkzMDtzdHJva2Utd2lkdGg6MS4wOyIgd2lkdGg9IjYiIHg9IjE1IiB5PSI5OS43NzM0Ii8+PHRleHQgZmlsbD0iIzAwMDAwMCIgZm9udC1mYW1pbHk9InNhbnMtc2VyaWYiIGZvbnQtc2l6ZT0iMTQiIGxlbmd0aEFkanVzdD0ic3BhY2luZyIgdGV4dExlbmd0aD0iOTgiIHg9IjI3IiB5PSIxMDcuMDE1NiI+Z2VuZGVyOiBTdHJpbmc8L3RleHQ+PHJlY3QgZmlsbD0ibm9uZSIgaGVpZ2h0PSI2IiBzdHlsZT0ic3Ryb2tlOiNDODI5MzA7c3Ryb2tlLXdpZHRoOjEuMDsiIHdpZHRoPSI2IiB4PSIxNSIgeT0iMTE0Ljc1NzgiLz48dGV4dCBmaWxsPSIjMDAwMDAwIiBmb250LWZhbWlseT0ic2Fucy1zZXJpZiIgZm9udC1zaXplPSIxNCIgbGVuZ3RoQWRqdXN0PSJzcGFjaW5nIiB0ZXh0TGVuZ3RoPSIyMTciIHg9IjI3IiB5PSIxMjIiPnByZWV4aXN0aW5nQ29uZGl0aW9uczogU3RyaW5nW108L3RleHQ+PHJlY3QgZmlsbD0ibm9uZSIgaGVpZ2h0PSI2IiBzdHlsZT0ic3Ryb2tlOiNDODI5MzA7c3Ryb2tlLXdpZHRoOjEuMDsiIHdpZHRoPSI2IiB4PSIxNSIgeT0iMTI5Ljc0MjIiLz48dGV4dCBmaWxsPSIjMDAwMDAwIiBmb250LWZhbWlseT0ic2Fucy1zZXJpZiIgZm9udC1zaXplPSIxNCIgbGVuZ3RoQWRqdXN0PSJzcGFjaW5nIiB0ZXh0TGVuZ3RoPSIxNTYiIHg9IjI3IiB5PSIxMzYuOTg0NCI+YW5pbWFsS2luZDogQW5pbWFsS2luZDwvdGV4dD48bGluZSBzdHlsZT0ic3Ryb2tlOiMxODE4MTg7c3Ryb2tlLXdpZHRoOjAuNTsiIHgxPSI4IiB4Mj0iNzAyIiB5MT0iMTQyLjczNDQiIHkyPSIxNDIuNzM0NCIvPjxlbGxpcHNlIGN4PSIxOCIgY3k9IjE1NS43MjY2IiBmaWxsPSIjODRCRTg0IiByeD0iMyIgcnk9IjMiIHN0eWxlPSJzdHJva2U6IzAzODA0ODtzdHJva2Utd2lkdGg6MS4wOyIvPjx0ZXh0IGZpbGw9IiMwMDAwMDAiIGZvbnQtZmFtaWx5PSJzYW5zLXNlcmlmIiBmb250LXNpemU9IjE0IiBsZW5ndGhBZGp1c3Q9InNwYWNpbmciIHRleHRMZW5ndGg9IjQzOSIgeD0iMjciIHk9IjE1OS45Njg4Ij5BbmltYWwobmFtZTogU3RyaW5nLCBhZ2U6IGludCwgd2VpZ2h0OiBkb3VibGUsIGdlbmRlcjogU3RyaW5nKTwvdGV4dD48ZWxsaXBzZSBjeD0iMTgiIGN5PSIxNzAuNzEwOSIgZmlsbD0iIzg0QkU4NCIgcng9IjMiIHJ5PSIzIiBzdHlsZT0ic3Ryb2tlOiMwMzgwNDg7c3Ryb2tlLXdpZHRoOjEuMDsiLz48dGV4dCBmaWxsPSIjMDAwMDAwIiBmb250LWZhbWlseT0ic2Fucy1zZXJpZiIgZm9udC1zaXplPSIxNCIgbGVuZ3RoQWRqdXN0PSJzcGFjaW5nIiB0ZXh0TGVuZ3RoPSI2NzAiIHg9IjI3IiB5PSIxNzQuOTUzMSI+QW5pbWFsKG5hbWU6IFN0cmluZywgYWdlOiBpbnQsIHdlaWdodDogZG91YmxlLCBnZW5kZXI6IFN0cmluZywgcHJlZXhpc3RpbmdDb25kaXRpb25zOiBTdHJpbmdbXSk8L3RleHQ+PGVsbGlwc2UgY3g9IjE4IiBjeT0iMTg1LjY5NTMiIGZpbGw9IiM4NEJFODQiIHJ4PSIzIiByeT0iMyIgc3R5bGU9InN0cm9rZTojMDM4MDQ4O3N0cm9rZS13aWR0aDoxLjA7Ii8+PHRleHQgZmlsbD0iIzAwMDAwMCIgZm9udC1mYW1pbHk9InNhbnMtc2VyaWYiIGZvbnQtc2l6ZT0iMTQiIGxlbmd0aEFkanVzdD0ic3BhY2luZyIgdGV4dExlbmd0aD0iMzU5IiB4PSIyNyIgeT0iMTg5LjkzNzUiPmFkZFByZWV4aXN0aW5nQ29uZGl0aW9uKGNvbmRpdGlvbnM6IFN0cmluZ1tdKTogdm9pZDwvdGV4dD48cmVjdCBmaWxsPSIjRjI0RDVDIiBoZWlnaHQ9IjYiIHN0eWxlPSJzdHJva2U6I0M4MjkzMDtzdHJva2Utd2lkdGg6MS4wOyIgd2lkdGg9IjYiIHg9IjE1IiB5PSIxOTcuNjc5NyIvPjx0ZXh0IGZpbGw9IiMwMDAwMDAiIGZvbnQtZmFtaWx5PSJzYW5zLXNlcmlmIiBmb250LXNpemU9IjE0IiBsZW5ndGhBZGp1c3Q9InNwYWNpbmciIHRleHRMZW5ndGg9IjM0NSIgeD0iMjciIHk9IjIwNC45MjE5Ij5pc1JlcGVhdGVkKGFycmF5OiBTdHJpbmdbXSwgc3RyOiBTdHJpbmcpOiBib29sZWFuPC90ZXh0PjxlbGxpcHNlIGN4PSIxOCIgY3k9IjIxNS42NjQxIiBmaWxsPSIjODRCRTg0IiByeD0iMyIgcnk9IjMiIHN0eWxlPSJzdHJva2U6IzAzODA0ODtzdHJva2Utd2lkdGg6MS4wOyIvPjx0ZXh0IGZpbGw9IiMwMDAwMDAiIGZvbnQtZmFtaWx5PSJzYW5zLXNlcmlmIiBmb250LXNpemU9IjE0IiBsZW5ndGhBZGp1c3Q9InNwYWNpbmciIHRleHRMZW5ndGg9IjI0NyIgeD0iMjciIHk9IjIxOS45MDYzIj5nZXRQcmVleGlzdGluZ0NvbmRpdGlvbigpOiBTdHJpbmdbXTwvdGV4dD48ZWxsaXBzZSBjeD0iMTgiIGN5PSIyMzAuNjQ4NCIgZmlsbD0iIzg0QkU4NCIgcng9IjMiIHJ5PSIzIiBzdHlsZT0ic3Ryb2tlOiMwMzgwNDg7c3Ryb2tlLXdpZHRoOjEuMDsiLz48dGV4dCBmaWxsPSIjMDAwMDAwIiBmb250LWZhbWlseT0ic2Fucy1zZXJpZiIgZm9udC1zaXplPSIxNCIgbGVuZ3RoQWRqdXN0PSJzcGFjaW5nIiB0ZXh0TGVuZ3RoPSIyNTUiIHg9IjI3IiB5PSIyMzQuODkwNiI+c2V0QW5pbWFsS2luZChraW5kOiBTdHJpbmcpOiBib29sZWFuPC90ZXh0PjxlbGxpcHNlIGN4PSIxOCIgY3k9IjI0NS42MzI4IiBmaWxsPSIjODRCRTg0IiByeD0iMyIgcnk9IjMiIHN0eWxlPSJzdHJva2U6IzAzODA0ODtzdHJva2Utd2lkdGg6MS4wOyIvPjx0ZXh0IGZpbGw9IiMwMDAwMDAiIGZvbnQtZmFtaWx5PSJzYW5zLXNlcmlmIiBmb250LXNpemU9IjE0IiBsZW5ndGhBZGp1c3Q9InNwYWNpbmciIHRleHRMZW5ndGg9IjIyMCIgeD0iMjciIHk9IjI0OS44NzUiPnNldFdlaWdodCh3ZWlnaHQ6IGRvdWJsZSk6IHZvaWQ8L3RleHQ+PGVsbGlwc2UgY3g9IjE4IiBjeT0iMjYwLjYxNzIiIGZpbGw9IiM4NEJFODQiIHJ4PSIzIiByeT0iMyIgc3R5bGU9InN0cm9rZTojMDM4MDQ4O3N0cm9rZS13aWR0aDoxLjA7Ii8+PHRleHQgZmlsbD0iIzAwMDAwMCIgZm9udC1mYW1pbHk9InNhbnMtc2VyaWYiIGZvbnQtc2l6ZT0iMTQiIGxlbmd0aEFkanVzdD0ic3BhY2luZyIgdGV4dExlbmd0aD0iMTIyIiB4PSIyNyIgeT0iMjY0Ljg1OTQiPmdldE5hbWUoKTogU3RyaW5nPC90ZXh0PjxlbGxpcHNlIGN4PSIxOCIgY3k9IjI3NS42MDE2IiBmaWxsPSIjODRCRTg0IiByeD0iMyIgcnk9IjMiIHN0eWxlPSJzdHJva2U6IzAzODA0ODtzdHJva2Utd2lkdGg6MS4wOyIvPjx0ZXh0IGZpbGw9IiMwMDAwMDAiIGZvbnQtZmFtaWx5PSJzYW5zLXNlcmlmIiBmb250LXNpemU9IjE0IiBsZW5ndGhBZGp1c3Q9InNwYWNpbmciIHRleHRMZW5ndGg9IjkzIiB4PSIyNyIgeT0iMjc5Ljg0MzgiPmdldEFnZSgpOiBpbnQ8L3RleHQ+PGVsbGlwc2UgY3g9IjE4IiBjeT0iMjkwLjU4NTkiIGZpbGw9IiM4NEJFODQiIHJ4PSIzIiByeT0iMyIgc3R5bGU9InN0cm9rZTojMDM4MDQ4O3N0cm9rZS13aWR0aDoxLjA7Ii8+PHRleHQgZmlsbD0iIzAwMDAwMCIgZm9udC1mYW1pbHk9InNhbnMtc2VyaWYiIGZvbnQtc2l6ZT0iMTQiIGxlbmd0aEFkanVzdD0ic3BhY2luZyIgdGV4dExlbmd0aD0iMTM1IiB4PSIyNyIgeT0iMjk0LjgyODEiPmdldFdlaWdodCgpOiBkb3VibGU8L3RleHQ+PGVsbGlwc2UgY3g9IjE4IiBjeT0iMzA1LjU3MDMiIGZpbGw9IiM4NEJFODQiIHJ4PSIzIiByeT0iMyIgc3R5bGU9InN0cm9rZTojMDM4MDQ4O3N0cm9rZS13aWR0aDoxLjA7Ii8+PHRleHQgZmlsbD0iIzAwMDAwMCIgZm9udC1mYW1pbHk9InNhbnMtc2VyaWYiIGZvbnQtc2l6ZT0iMTQiIGxlbmd0aEFkanVzdD0ic3BhY2luZyIgdGV4dExlbmd0aD0iMTkzIiB4PSIyNyIgeT0iMzA5LjgxMjUiPmdldEFuaW1hbEtpbmQoKTogQW5pbWFsS2luZDwvdGV4dD48ZWxsaXBzZSBjeD0iMTgiIGN5PSIzMjAuNTU0NyIgZmlsbD0iIzg0QkU4NCIgcng9IjMiIHJ5PSIzIiBzdHlsZT0ic3Ryb2tlOiMwMzgwNDg7c3Ryb2tlLXdpZHRoOjEuMDsiLz48dGV4dCBmaWxsPSIjMDAwMDAwIiBmb250LWZhbWlseT0ic2Fucy1zZXJpZiIgZm9udC1zaXplPSIxNCIgbGVuZ3RoQWRqdXN0PSJzcGFjaW5nIiB0ZXh0TGVuZ3RoPSIxMzUiIHg9IjI3IiB5PSIzMjQuNzk2OSI+Z2V0R2VuZGVyKCk6IFN0cmluZzwvdGV4dD48L2c+PCEtLVNSQz1bZkxCMUlXQ240QnR0QS1RT2ZWNDdHWWFLM29BMlkxdndBNE5JUGVYM2pxYjlLY3FIX3pxdXNQaFRpazMxTS1SRG94bXRCemNzRWFQT0VEaGg1Y1FwLXpUb2RDeV85bTB0dUZHVTVSb2FHQ3VvZTZza29JS2tGZjNpTXI5V183N0o4YUNNZFM0bWs3ODhZMlVBQVRVdHRYYkF2NXN5QzVSaENmUEw3eVdQclBkdkVLem9SemhMZWN6NV9sZ0dMb1JhYk9GY19vRmFObmlLM010Q3FtWEZSQ1RrQTdadFA3WHJZaXp1Rzl0RzIxczJGYlVNWDlaZzhXZXN0aFVlN1FqUEpBRGdwSTNPQUtIQ0RLLW51dTE3MXNSWWFjQ0dtcElnTEhQenAxNU1hR2t3aTBvTVZ5NThEd2xmVk94Mmg2UVFtTER0X0prRWxnVm16R3EwXS0tPjwvZz48L3N2Zz4=;" parent="1" vertex="1">
            <mxGeometry x="-800.5" y="43.00000000000006" width="717" height="344" as="geometry" />
          </mxCell>
        </UserObject>
        <mxCell id="fNJLwbQvEekjFqsQkFxo-15" style="edgeStyle=orthogonalEdgeStyle;rounded=0;orthogonalLoop=1;jettySize=auto;html=1;exitX=0.322;exitY=0.006;exitDx=0;exitDy=0;exitPerimeter=0;dashed=1;dashPattern=8 8;endArrow=none;endFill=0;startArrow=open;startFill=0;" parent="1" source="kbrCUC_pbYBXq86tmqO2-5" edge="1">
          <mxGeometry relative="1" as="geometry">
            <mxPoint x="80" y="160" as="targetPoint" />
            <Array as="points">
              <mxPoint x="35" y="160" />
            </Array>
          </mxGeometry>
        </mxCell>
        <mxCell id="uYADebYyoeD6eWLToY8Z-3" value="verify" style="edgeLabel;html=1;align=center;verticalAlign=middle;resizable=0;points=[];fontSize=16;" parent="fNJLwbQvEekjFqsQkFxo-15" vertex="1" connectable="0">
          <mxGeometry x="-0.2328" y="2" relative="1" as="geometry">
            <mxPoint y="-1" as="offset" />
          </mxGeometry>
        </mxCell>
        <UserObject label="" plantUmlData="{&quot;data&quot;:&quot;@startuml\nenum Treatment {\n  + vaccination: String\n  + injury: String\n  + diagnostics: String\n  + emergency: String\n\n  ~ Treatment(value: String)\n  + toString(): String\n}\n@enduml\n&quot;,&quot;format&quot;:&quot;svg&quot;}" id="kbrCUC_pbYBXq86tmqO2-5">
          <mxCell style="shape=image;noLabel=1;verticalAlign=top;aspect=fixed;imageAspect=0;image=data:image/svg+xml,PD94bWwgdmVyc2lvbj0iMS4wIiBlbmNvZGluZz0idXMtYXNjaWkiIHN0YW5kYWxvbmU9Im5vIj8+PHN2ZyB4bWxucz0iaHR0cDovL3d3dy53My5vcmcvMjAwMC9zdmciIHhtbG5zOnhsaW5rPSJodHRwOi8vd3d3LnczLm9yZy8xOTk5L3hsaW5rIiBjb250ZW50U3R5bGVUeXBlPSJ0ZXh0L2NzcyIgaGVpZ2h0PSIxNThweCIgcHJlc2VydmVBc3BlY3RSYXRpbz0ibm9uZSIgc3R5bGU9IndpZHRoOjIxOHB4O2hlaWdodDoxNThweDtiYWNrZ3JvdW5kOiNGRkZGRkY7IiB2ZXJzaW9uPSIxLjEiIHZpZXdCb3g9IjAgMCAyMTggMTU4IiB3aWR0aD0iMjE4cHgiIHpvb21BbmRQYW49Im1hZ25pZnkiPjxkZWZzLz48Zz48IS0tY2xhc3MgVHJlYXRtZW50LS0+PGcgaWQ9ImVsZW1fVHJlYXRtZW50Ij48cmVjdCBjb2RlTGluZT0iMSIgZmlsbD0iI0YxRjFGMSIgaGVpZ2h0PSIxMzcuOTA2MyIgaWQ9IlRyZWF0bWVudCIgcng9IjIuNSIgcnk9IjIuNSIgc3R5bGU9InN0cm9rZTojMTgxODE4O3N0cm9rZS13aWR0aDowLjU7IiB3aWR0aD0iMTk3IiB4PSI3IiB5PSI3Ii8+PGVsbGlwc2UgY3g9IjY5LjI1IiBjeT0iMjMiIGZpbGw9IiNFQjkzN0YiIHJ4PSIxMSIgcnk9IjExIiBzdHlsZT0ic3Ryb2tlOiMxODE4MTg7c3Ryb2tlLXdpZHRoOjEuMDsiLz48cGF0aCBkPSJNNzIuODc1LDI5IEw3Mi44NzUsMjcuMjUgTDY3LjU2MjUsMjcuMjUgUTY3LjU2MjUsMjcuMjUgNjcuNTYyNSwyMy42ODc1IEw3MS44MTI1LDIzLjY4NzUgTDcxLjgxMjUsMjEuOTM3NSBMNjcuNTYyNSwyMS45Mzc1IEw2Ny41NjI1LDE5LjQzNzUgTDcyLjg3NSwxOS40Mzc1IEw3Mi44NzUsMTcuNjg3NSBMNjUuODEyNSwxNy42ODc1IFE2NS44MTI1LDE3LjY4NzUgNjUuODEyNSwyOSBMNzIuODc1LDI5IFogIiBmaWxsPSIjMDAwMDAwIi8+PHRleHQgZmlsbD0iIzAwMDAwMCIgZm9udC1mYW1pbHk9InNhbnMtc2VyaWYiIGZvbnQtc2l6ZT0iMTQiIGxlbmd0aEFkanVzdD0ic3BhY2luZyIgdGV4dExlbmd0aD0iNjQiIHg9Ijg5Ljc1IiB5PSIyOC43NDIyIj5UcmVhdG1lbnQ8L3RleHQ+PGxpbmUgc3R5bGU9InN0cm9rZTojMTgxODE4O3N0cm9rZS13aWR0aDowLjU7IiB4MT0iOCIgeDI9IjIwMyIgeTE9IjM5IiB5Mj0iMzkiLz48ZWxsaXBzZSBjeD0iMTgiIGN5PSI1MS45OTIyIiBmaWxsPSJub25lIiByeD0iMyIgcnk9IjMiIHN0eWxlPSJzdHJva2U6IzAzODA0ODtzdHJva2Utd2lkdGg6MS4wOyIvPjx0ZXh0IGZpbGw9IiMwMDAwMDAiIGZvbnQtZmFtaWx5PSJzYW5zLXNlcmlmIiBmb250LXNpemU9IjE0IiBsZW5ndGhBZGp1c3Q9InNwYWNpbmciIHRleHRMZW5ndGg9IjEzMyIgeD0iMjciIHk9IjU2LjIzNDQiPnZhY2NpbmF0aW9uOiBTdHJpbmc8L3RleHQ+PGVsbGlwc2UgY3g9IjE4IiBjeT0iNjYuOTc2NiIgZmlsbD0ibm9uZSIgcng9IjMiIHJ5PSIzIiBzdHlsZT0ic3Ryb2tlOiMwMzgwNDg7c3Ryb2tlLXdpZHRoOjEuMDsiLz48dGV4dCBmaWxsPSIjMDAwMDAwIiBmb250LWZhbWlseT0ic2Fucy1zZXJpZiIgZm9udC1zaXplPSIxNCIgbGVuZ3RoQWRqdXN0PSJzcGFjaW5nIiB0ZXh0TGVuZ3RoPSI5OCIgeD0iMjciIHk9IjcxLjIxODgiPmluanVyeTogU3RyaW5nPC90ZXh0PjxlbGxpcHNlIGN4PSIxOCIgY3k9IjgxLjk2MDkiIGZpbGw9Im5vbmUiIHJ4PSIzIiByeT0iMyIgc3R5bGU9InN0cm9rZTojMDM4MDQ4O3N0cm9rZS13aWR0aDoxLjA7Ii8+PHRleHQgZmlsbD0iIzAwMDAwMCIgZm9udC1mYW1pbHk9InNhbnMtc2VyaWYiIGZvbnQtc2l6ZT0iMTQiIGxlbmd0aEFkanVzdD0ic3BhY2luZyIgdGV4dExlbmd0aD0iMTMzIiB4PSIyNyIgeT0iODYuMjAzMSI+ZGlhZ25vc3RpY3M6IFN0cmluZzwvdGV4dD48ZWxsaXBzZSBjeD0iMTgiIGN5PSI5Ni45NDUzIiBmaWxsPSJub25lIiByeD0iMyIgcnk9IjMiIHN0eWxlPSJzdHJva2U6IzAzODA0ODtzdHJva2Utd2lkdGg6MS4wOyIvPjx0ZXh0IGZpbGw9IiMwMDAwMDAiIGZvbnQtZmFtaWx5PSJzYW5zLXNlcmlmIiBmb250LXNpemU9IjE0IiBsZW5ndGhBZGp1c3Q9InNwYWNpbmciIHRleHRMZW5ndGg9IjEyMCIgeD0iMjciIHk9IjEwMS4xODc1Ij5lbWVyZ2VuY3k6IFN0cmluZzwvdGV4dD48bGluZSBzdHlsZT0ic3Ryb2tlOiMxODE4MTg7c3Ryb2tlLXdpZHRoOjAuNTsiIHgxPSI4IiB4Mj0iMjAzIiB5MT0iMTA2LjkzNzUiIHkyPSIxMDYuOTM3NSIvPjxwb2x5Z29uIGZpbGw9IiM0MTc3QUYiIHBvaW50cz0iMTgsMTE1LjkyOTcsMTQsMTIxLjkyOTcsMjIsMTIxLjkyOTciIHN0eWxlPSJzdHJva2U6IzE5NjNBMDtzdHJva2Utd2lkdGg6MS4wOyIvPjx0ZXh0IGZpbGw9IiMwMDAwMDAiIGZvbnQtZmFtaWx5PSJzYW5zLXNlcmlmIiBmb250LXNpemU9IjE0IiBsZW5ndGhBZGp1c3Q9InNwYWNpbmciIHRleHRMZW5ndGg9IjE3MSIgeD0iMjciIHk9IjEyNC4xNzE5Ij5UcmVhdG1lbnQodmFsdWU6IFN0cmluZyk8L3RleHQ+PGVsbGlwc2UgY3g9IjE4IiBjeT0iMTM0LjkxNDEiIGZpbGw9IiM4NEJFODQiIHJ4PSIzIiByeT0iMyIgc3R5bGU9InN0cm9rZTojMDM4MDQ4O3N0cm9rZS13aWR0aDoxLjA7Ii8+PHRleHQgZmlsbD0iIzAwMDAwMCIgZm9udC1mYW1pbHk9InNhbnMtc2VyaWYiIGZvbnQtc2l6ZT0iMTQiIGxlbmd0aEFkanVzdD0ic3BhY2luZyIgdGV4dExlbmd0aD0iMTI4IiB4PSIyNyIgeT0iMTM5LjE1NjMiPnRvU3RyaW5nKCk6IFN0cmluZzwvdGV4dD48L2c+PCEtLVNSQz1bTE9yMTJlMG0zMEpsbFlCN1laX202X2cxSzRFOXMxSlFqMjJZUnJTS0JIdnRUZVNib0h4NklBWVVINjVoMDNlZVEycUJBV1ZmT1QzOHVjeEVDa1V1X2ozNHcyR2FQUGotZDNuNUhzQmgtaTk3Vko4NWJxbmxzVHdFWFlVUHpmRnM0bTAwXS0tPjwvZz48L3N2Zz4=;" parent="1" vertex="1">
            <mxGeometry x="-35.5" y="491" width="218" height="158" as="geometry" />
          </mxCell>
        </UserObject>
        <mxCell id="fNJLwbQvEekjFqsQkFxo-23" style="edgeStyle=orthogonalEdgeStyle;rounded=0;orthogonalLoop=1;jettySize=auto;html=1;exitX=1;exitY=0.5;exitDx=0;exitDy=0;entryX=0;entryY=0.25;entryDx=0;entryDy=0;endArrow=none;endFill=0;" parent="1" source="kbrCUC_pbYBXq86tmqO2-49" target="kbrCUC_pbYBXq86tmqO2-69" edge="1">
          <mxGeometry relative="1" as="geometry" />
        </mxCell>
        <mxCell id="uYADebYyoeD6eWLToY8Z-32" value="operate" style="edgeLabel;html=1;align=center;verticalAlign=middle;resizable=0;points=[];fontSize=16;" parent="fNJLwbQvEekjFqsQkFxo-23" vertex="1" connectable="0">
          <mxGeometry x="0.0096" y="1" relative="1" as="geometry">
            <mxPoint y="-1" as="offset" />
          </mxGeometry>
        </mxCell>
        <mxCell id="uYADebYyoeD6eWLToY8Z-11" style="edgeStyle=none;curved=1;rounded=0;orthogonalLoop=1;jettySize=auto;html=1;exitX=0.5;exitY=0;exitDx=0;exitDy=0;entryX=0.5;entryY=1;entryDx=0;entryDy=0;fontSize=12;startSize=8;endSize=8;endArrow=block;endFill=0;" parent="1" source="kbrCUC_pbYBXq86tmqO2-49" target="kbrCUC_pbYBXq86tmqO2-51" edge="1">
          <mxGeometry relative="1" as="geometry" />
        </mxCell>
        <mxCell id="uYADebYyoeD6eWLToY8Z-26" value="identify" style="edgeLabel;html=1;align=center;verticalAlign=middle;resizable=0;points=[];fontSize=16;" parent="uYADebYyoeD6eWLToY8Z-11" vertex="1" connectable="0">
          <mxGeometry x="-0.2778" y="-2" relative="1" as="geometry">
            <mxPoint x="29" as="offset" />
          </mxGeometry>
        </mxCell>
        <UserObject label="" plantUmlData="{&quot;data&quot;:&quot;@startuml\nclass Assistant &lt;&lt;I_Assistant&gt;&gt;{\n  //extends Person\n\n  + Assistant(name: String, age: int, address: String)\n}\n\n@enduml\n&quot;,&quot;format&quot;:&quot;svg&quot;}" id="kbrCUC_pbYBXq86tmqO2-49">
          <mxCell style="shape=image;noLabel=1;verticalAlign=top;aspect=fixed;imageAspect=0;image=data:image/svg+xml,PD94bWwgdmVyc2lvbj0iMS4wIiBlbmNvZGluZz0idXMtYXNjaWkiIHN0YW5kYWxvbmU9Im5vIj8+PHN2ZyB4bWxucz0iaHR0cDovL3d3dy53My5vcmcvMjAwMC9zdmciIHhtbG5zOnhsaW5rPSJodHRwOi8vd3d3LnczLm9yZy8xOTk5L3hsaW5rIiBjb250ZW50U3R5bGVUeXBlPSJ0ZXh0L2NzcyIgaGVpZ2h0PSIxMDRweCIgcHJlc2VydmVBc3BlY3RSYXRpbz0ibm9uZSIgc3R5bGU9IndpZHRoOjQwMHB4O2hlaWdodDoxMDRweDtiYWNrZ3JvdW5kOiNGRkZGRkY7IiB2ZXJzaW9uPSIxLjEiIHZpZXdCb3g9IjAgMCA0MDAgMTA0IiB3aWR0aD0iNDAwcHgiIHpvb21BbmRQYW49Im1hZ25pZnkiPjxkZWZzLz48Zz48IS0tY2xhc3MgQXNzaXN0YW50LS0+PGcgaWQ9ImVsZW1fQXNzaXN0YW50Ij48cmVjdCBjb2RlTGluZT0iMSIgZmlsbD0iI0YxRjFGMSIgaGVpZ2h0PSI4My43OTY5IiBpZD0iQXNzaXN0YW50IiByeD0iMi41IiByeT0iMi41IiBzdHlsZT0ic3Ryb2tlOiMxODE4MTg7c3Ryb2tlLXdpZHRoOjAuNTsiIHdpZHRoPSIzNzkiIHg9IjciIHk9IjciLz48ZWxsaXBzZSBjeD0iMTUyLjI1IiBjeT0iMjUuOTE0MSIgZmlsbD0iI0FERDFCMiIgcng9IjExIiByeT0iMTEiIHN0eWxlPSJzdHJva2U6IzE4MTgxODtzdHJva2Utd2lkdGg6MS4wOyIvPjxwYXRoIGQ9Ik0xNDkuODc1LDMwLjE2NDEgTDE0OS44NzUsMzEuOTE0MSBMMTU0LjgxMjUsMzEuOTE0MSBMMTU0LjgxMjUsMzAuMTY0MSBMMTQ5Ljg3NSwzMC4xNjQxIFogTTE1MC41NjI1LDMwLjg1MTYgUTE1MC41NjI1LDMwLjg1MTYgMTUwLjU2MjUsMjEuNjY0MSBMMTQ4LjgxMjUsMjEuNjY0MSBRMTQ4LjgxMjUsMjEuNjY0MSAxNDguODEyNSwzMC44NTE2IEwxNTAuNTYyNSwzMC44NTE2IFogTTE1NC4xMjUsMzAuODUxNiBMMTU1Ljg3NSwzMC44NTE2IFExNTUuODc1LDMwLjg1MTYgMTU1Ljg3NSwyOC4wMzkxIEwxNTQuMTI1LDI4LjAzOTEgUTE1NC4xMjUsMjguMDM5MSAxNTQuMTI1LDMwLjg1MTYgWiBNMTU0LjEyNSwyMS42NjQxIFExNTQuMTI1LDIxLjY2NDEgMTU0LjEyNSwyNC40NzY2IEwxNTUuODc1LDI0LjQ3NjYgUTE1NS44NzUsMjQuNDc2NiAxNTUuODc1LDIxLjY2NDEgTDE1NC4xMjUsMjEuNjY0MSBaIE0xNDkuODc1LDIyLjM1MTYgTDE1NC44MTI1LDIyLjM1MTYgTDE1NC44MTI1LDIwLjYwMTYgTDE0OS44NzUsMjAuNjAxNiBMMTQ5Ljg3NSwyMi4zNTE2IFogIiBmaWxsPSIjMDAwMDAwIi8+PHRleHQgZmlsbD0iIzAwMDAwMCIgZm9udC1mYW1pbHk9InNhbnMtc2VyaWYiIGZvbnQtc2l6ZT0iMTIiIGZvbnQtc3R5bGU9Iml0YWxpYyIgbGVuZ3RoQWRqdXN0PSJzcGFjaW5nIiB0ZXh0TGVuZ3RoPSI4NCIgeD0iMTcwLjc1IiB5PSIyMy4zNDM4Ij4mIzE3MTtJX0Fzc2lzdGFudCYjMTg3OzwvdGV4dD48dGV4dCBmaWxsPSIjMDAwMDAwIiBmb250LWZhbWlseT0ic2Fucy1zZXJpZiIgZm9udC1zaXplPSIxNCIgbGVuZ3RoQWRqdXN0PSJzcGFjaW5nIiB0ZXh0TGVuZ3RoPSI2MyIgeD0iMTgxLjI1IiB5PSIzOC4wNzgxIj5Bc3Npc3RhbnQ8L3RleHQ+PGxpbmUgc3R5bGU9InN0cm9rZTojMTgxODE4O3N0cm9rZS13aWR0aDowLjU7IiB4MT0iOCIgeDI9IjM4NSIgeTE9IjQ0LjgyODEiIHkyPSI0NC44MjgxIi8+PHRleHQgZmlsbD0iIzAwMDAwMCIgZm9udC1mYW1pbHk9InNhbnMtc2VyaWYiIGZvbnQtc2l6ZT0iMTQiIGxlbmd0aEFkanVzdD0ic3BhY2luZyIgdGV4dExlbmd0aD0iMTEyIiB4PSIxMyIgeT0iNjIuMDYyNSI+Ly9leHRlbmRzIFBlcnNvbjwvdGV4dD48bGluZSBzdHlsZT0ic3Ryb2tlOiMxODE4MTg7c3Ryb2tlLXdpZHRoOjAuNTsiIHgxPSI4IiB4Mj0iMzg1IiB5MT0iNjcuODEyNSIgeTI9IjY3LjgxMjUiLz48ZWxsaXBzZSBjeD0iMTgiIGN5PSI4MC44MDQ3IiBmaWxsPSIjODRCRTg0IiByeD0iMyIgcnk9IjMiIHN0eWxlPSJzdHJva2U6IzAzODA0ODtzdHJva2Utd2lkdGg6MS4wOyIvPjx0ZXh0IGZpbGw9IiMwMDAwMDAiIGZvbnQtZmFtaWx5PSJzYW5zLXNlcmlmIiBmb250LXNpemU9IjE0IiBsZW5ndGhBZGp1c3Q9InNwYWNpbmciIHRleHRMZW5ndGg9IjM1MyIgeD0iMjciIHk9Ijg1LjA0NjkiPkFzc2lzdGFudChuYW1lOiBTdHJpbmcsIGFnZTogaW50LCBhZGRyZXNzOiBTdHJpbmcpPC90ZXh0PjwvZz48IS0tU1JDPVtJeXY5QjJ2TVMybWtwWW1rSVNtaEtSMm55T283eS1waWdoYUs1RkpyS29qQUtsRElZWEsyS2VrQXlfRXVXNkJRMjJxUVVPY3ZnTE9BbUlMNWNOZGZFV2c5d0sxRVBidTlhOU1JS2ZIUU4wb0pxa0lnMUcwMF0tLT48L2c+PC9zdmc+;" parent="1" vertex="1">
            <mxGeometry x="-471" y="686" width="400" height="104" as="geometry" />
          </mxCell>
        </UserObject>
        <UserObject label="" plantUmlData="{&quot;data&quot;:&quot;@startuml\nclass Case &lt;&lt;I_Case&gt;&gt;{\n  + owner: Person\n  + animal: Animal\n  - treatment: Treatment\n  + Case()\n  + Case(owner: Person, animal: Animal, treatment: Treatment)\n  + getOwner(): Person\n  + getAnimal(): Animal\n  + getTreatment(): Treatment\n}\n\n\n@enduml\n&quot;,&quot;format&quot;:&quot;svg&quot;}" id="kbrCUC_pbYBXq86tmqO2-50">
          <mxCell style="shape=image;noLabel=1;verticalAlign=top;aspect=fixed;imageAspect=0;image=data:image/svg+xml,PD94bWwgdmVyc2lvbj0iMS4wIiBlbmNvZGluZz0idXMtYXNjaWkiIHN0YW5kYWxvbmU9Im5vIj8+PHN2ZyB4bWxucz0iaHR0cDovL3d3dy53My5vcmcvMjAwMC9zdmciIHhtbG5zOnhsaW5rPSJodHRwOi8vd3d3LnczLm9yZy8xOTk5L3hsaW5rIiBjb250ZW50U3R5bGVUeXBlPSJ0ZXh0L2NzcyIgaGVpZ2h0PSIxOTRweCIgcHJlc2VydmVBc3BlY3RSYXRpbz0ibm9uZSIgc3R5bGU9IndpZHRoOjQ1M3B4O2hlaWdodDoxOTRweDtiYWNrZ3JvdW5kOiNGRkZGRkY7IiB2ZXJzaW9uPSIxLjEiIHZpZXdCb3g9IjAgMCA0NTMgMTk0IiB3aWR0aD0iNDUzcHgiIHpvb21BbmRQYW49Im1hZ25pZnkiPjxkZWZzLz48Zz48IS0tY2xhc3MgQ2FzZS0tPjxnIGlkPSJlbGVtX0Nhc2UiPjxyZWN0IGNvZGVMaW5lPSIxIiBmaWxsPSIjRjFGMUYxIiBoZWlnaHQ9IjE3My43MDMxIiBpZD0iQ2FzZSIgcng9IjIuNSIgcnk9IjIuNSIgc3R5bGU9InN0cm9rZTojMTgxODE4O3N0cm9rZS13aWR0aDowLjU7IiB3aWR0aD0iNDMyIiB4PSI3IiB5PSI3Ii8+PGVsbGlwc2UgY3g9IjE5NC43NSIgY3k9IjI1LjkxNDEiIGZpbGw9IiNBREQxQjIiIHJ4PSIxMSIgcnk9IjExIiBzdHlsZT0ic3Ryb2tlOiMxODE4MTg7c3Ryb2tlLXdpZHRoOjEuMDsiLz48cGF0aCBkPSJNMTkyLjM3NSwzMC4xNjQxIEwxOTIuMzc1LDMxLjkxNDEgTDE5Ny4zMTI1LDMxLjkxNDEgTDE5Ny4zMTI1LDMwLjE2NDEgTDE5Mi4zNzUsMzAuMTY0MSBaIE0xOTMuMDYyNSwzMC44NTE2IFExOTMuMDYyNSwzMC44NTE2IDE5My4wNjI1LDIxLjY2NDEgTDE5MS4zMTI1LDIxLjY2NDEgUTE5MS4zMTI1LDIxLjY2NDEgMTkxLjMxMjUsMzAuODUxNiBMMTkzLjA2MjUsMzAuODUxNiBaIE0xOTYuNjI1LDMwLjg1MTYgTDE5OC4zNzUsMzAuODUxNiBRMTk4LjM3NSwzMC44NTE2IDE5OC4zNzUsMjguMDM5MSBMMTk2LjYyNSwyOC4wMzkxIFExOTYuNjI1LDI4LjAzOTEgMTk2LjYyNSwzMC44NTE2IFogTTE5Ni42MjUsMjEuNjY0MSBRMTk2LjYyNSwyMS42NjQxIDE5Ni42MjUsMjQuNDc2NiBMMTk4LjM3NSwyNC40NzY2IFExOTguMzc1LDI0LjQ3NjYgMTk4LjM3NSwyMS42NjQxIEwxOTYuNjI1LDIxLjY2NDEgWiBNMTkyLjM3NSwyMi4zNTE2IEwxOTcuMzEyNSwyMi4zNTE2IEwxOTcuMzEyNSwyMC42MDE2IEwxOTIuMzc1LDIwLjYwMTYgTDE5Mi4zNzUsMjIuMzUxNiBaICIgZmlsbD0iIzAwMDAwMCIvPjx0ZXh0IGZpbGw9IiMwMDAwMDAiIGZvbnQtZmFtaWx5PSJzYW5zLXNlcmlmIiBmb250LXNpemU9IjEyIiBmb250LXN0eWxlPSJpdGFsaWMiIGxlbmd0aEFkanVzdD0ic3BhY2luZyIgdGV4dExlbmd0aD0iNTIiIHg9IjIxMy4yNSIgeT0iMjMuMzQzOCI+JiMxNzE7SV9DYXNlJiMxODc7PC90ZXh0Pjx0ZXh0IGZpbGw9IiMwMDAwMDAiIGZvbnQtZmFtaWx5PSJzYW5zLXNlcmlmIiBmb250LXNpemU9IjE0IiBsZW5ndGhBZGp1c3Q9InNwYWNpbmciIHRleHRMZW5ndGg9IjI4IiB4PSIyMjUuMjUiIHk9IjM4LjA3ODEiPkNhc2U8L3RleHQ+PGxpbmUgc3R5bGU9InN0cm9rZTojMTgxODE4O3N0cm9rZS13aWR0aDowLjU7IiB4MT0iOCIgeDI9IjQzOCIgeTE9IjQ0LjgyODEiIHkyPSI0NC44MjgxIi8+PGVsbGlwc2UgY3g9IjE4IiBjeT0iNTcuODIwMyIgZmlsbD0ibm9uZSIgcng9IjMiIHJ5PSIzIiBzdHlsZT0ic3Ryb2tlOiMwMzgwNDg7c3Ryb2tlLXdpZHRoOjEuMDsiLz48dGV4dCBmaWxsPSIjMDAwMDAwIiBmb250LWZhbWlseT0ic2Fucy1zZXJpZiIgZm9udC1zaXplPSIxNCIgbGVuZ3RoQWRqdXN0PSJzcGFjaW5nIiB0ZXh0TGVuZ3RoPSI5MiIgeD0iMjciIHk9IjYyLjA2MjUiPm93bmVyOiBQZXJzb248L3RleHQ+PGVsbGlwc2UgY3g9IjE4IiBjeT0iNzIuODA0NyIgZmlsbD0ibm9uZSIgcng9IjMiIHJ5PSIzIiBzdHlsZT0ic3Ryb2tlOiMwMzgwNDg7c3Ryb2tlLXdpZHRoOjEuMDsiLz48dGV4dCBmaWxsPSIjMDAwMDAwIiBmb250LWZhbWlseT0ic2Fucy1zZXJpZiIgZm9udC1zaXplPSIxNCIgbGVuZ3RoQWRqdXN0PSJzcGFjaW5nIiB0ZXh0TGVuZ3RoPSIxMDAiIHg9IjI3IiB5PSI3Ny4wNDY5Ij5hbmltYWw6IEFuaW1hbDwvdGV4dD48cmVjdCBmaWxsPSJub25lIiBoZWlnaHQ9IjYiIHN0eWxlPSJzdHJva2U6I0M4MjkzMDtzdHJva2Utd2lkdGg6MS4wOyIgd2lkdGg9IjYiIHg9IjE1IiB5PSI4NC43ODkxIi8+PHRleHQgZmlsbD0iIzAwMDAwMCIgZm9udC1mYW1pbHk9InNhbnMtc2VyaWYiIGZvbnQtc2l6ZT0iMTQiIGxlbmd0aEFkanVzdD0ic3BhY2luZyIgdGV4dExlbmd0aD0iMTQyIiB4PSIyNyIgeT0iOTIuMDMxMyI+dHJlYXRtZW50OiBUcmVhdG1lbnQ8L3RleHQ+PGxpbmUgc3R5bGU9InN0cm9rZTojMTgxODE4O3N0cm9rZS13aWR0aDowLjU7IiB4MT0iOCIgeDI9IjQzOCIgeTE9Ijk3Ljc4MTMiIHkyPSI5Ny43ODEzIi8+PGVsbGlwc2UgY3g9IjE4IiBjeT0iMTEwLjc3MzQiIGZpbGw9IiM4NEJFODQiIHJ4PSIzIiByeT0iMyIgc3R5bGU9InN0cm9rZTojMDM4MDQ4O3N0cm9rZS13aWR0aDoxLjA7Ii8+PHRleHQgZmlsbD0iIzAwMDAwMCIgZm9udC1mYW1pbHk9InNhbnMtc2VyaWYiIGZvbnQtc2l6ZT0iMTQiIGxlbmd0aEFkanVzdD0ic3BhY2luZyIgdGV4dExlbmd0aD0iNDQiIHg9IjI3IiB5PSIxMTUuMDE1NiI+Q2FzZSgpPC90ZXh0PjxlbGxpcHNlIGN4PSIxOCIgY3k9IjEyNS43NTc4IiBmaWxsPSIjODRCRTg0IiByeD0iMyIgcnk9IjMiIHN0eWxlPSJzdHJva2U6IzAzODA0ODtzdHJva2Utd2lkdGg6MS4wOyIvPjx0ZXh0IGZpbGw9IiMwMDAwMDAiIGZvbnQtZmFtaWx5PSJzYW5zLXNlcmlmIiBmb250LXNpemU9IjE0IiBsZW5ndGhBZGp1c3Q9InNwYWNpbmciIHRleHRMZW5ndGg9IjQwNiIgeD0iMjciIHk9IjEzMCI+Q2FzZShvd25lcjogUGVyc29uLCBhbmltYWw6IEFuaW1hbCwgdHJlYXRtZW50OiBUcmVhdG1lbnQpPC90ZXh0PjxlbGxpcHNlIGN4PSIxOCIgY3k9IjE0MC43NDIyIiBmaWxsPSIjODRCRTg0IiByeD0iMyIgcnk9IjMiIHN0eWxlPSJzdHJva2U6IzAzODA0ODtzdHJva2Utd2lkdGg6MS4wOyIvPjx0ZXh0IGZpbGw9IiMwMDAwMDAiIGZvbnQtZmFtaWx5PSJzYW5zLXNlcmlmIiBmb250LXNpemU9IjE0IiBsZW5ndGhBZGp1c3Q9InNwYWNpbmciIHRleHRMZW5ndGg9IjEyOSIgeD0iMjciIHk9IjE0NC45ODQ0Ij5nZXRPd25lcigpOiBQZXJzb248L3RleHQ+PGVsbGlwc2UgY3g9IjE4IiBjeT0iMTU1LjcyNjYiIGZpbGw9IiM4NEJFODQiIHJ4PSIzIiByeT0iMyIgc3R5bGU9InN0cm9rZTojMDM4MDQ4O3N0cm9rZS13aWR0aDoxLjA7Ii8+PHRleHQgZmlsbD0iIzAwMDAwMCIgZm9udC1mYW1pbHk9InNhbnMtc2VyaWYiIGZvbnQtc2l6ZT0iMTQiIGxlbmd0aEFkanVzdD0ic3BhY2luZyIgdGV4dExlbmd0aD0iMTM3IiB4PSIyNyIgeT0iMTU5Ljk2ODgiPmdldEFuaW1hbCgpOiBBbmltYWw8L3RleHQ+PGVsbGlwc2UgY3g9IjE4IiBjeT0iMTcwLjcxMDkiIGZpbGw9IiM4NEJFODQiIHJ4PSIzIiByeT0iMyIgc3R5bGU9InN0cm9rZTojMDM4MDQ4O3N0cm9rZS13aWR0aDoxLjA7Ii8+PHRleHQgZmlsbD0iIzAwMDAwMCIgZm9udC1mYW1pbHk9InNhbnMtc2VyaWYiIGZvbnQtc2l6ZT0iMTQiIGxlbmd0aEFkanVzdD0ic3BhY2luZyIgdGV4dExlbmd0aD0iMTc5IiB4PSIyNyIgeT0iMTc0Ljk1MzEiPmdldFRyZWF0bWVudCgpOiBUcmVhdG1lbnQ8L3RleHQ+PC9nPjwhLS1TUkM9W0l5djlCMnZNUzR1aUpiTW1pVjZDMXA3aXhBZ3Y1MUlxNVZCQnlyQUJoMUcyS2VrQXlfRjA4ZWJ2Y1JjOUVMT0FaYzBRQUFJaEs1QUtjYllJY3ZmTk9nS0cwY0Uyck85Q3FqMTRDNTVDcXE0cElXVWhFSDNUd1FhYl9ZMno2ZmVlUlc0QUdfSTJuRTRFMGVsMzNHMTk4TG5MMm0wMF0tLT48L2c+PC9zdmc+;" parent="1" vertex="1">
            <mxGeometry x="82" y="23.5" width="453" height="194" as="geometry" />
          </mxCell>
        </UserObject>
        <UserObject label="" plantUmlData="{&quot;data&quot;:&quot;@startuml\nclass Person &lt;&lt;I_Person&gt;&gt;{\n  - name: String\n  - age: int\n  - address: String\n  + Person()\n  + Person(name: String, age: int, address: String)\n  + getName(): String\n  + getAge(): int\n  + getAddress(): String\n}\n\n@enduml\n&quot;,&quot;format&quot;:&quot;svg&quot;}" id="kbrCUC_pbYBXq86tmqO2-51">
          <mxCell style="shape=image;noLabel=1;verticalAlign=top;aspect=fixed;imageAspect=0;image=data:image/svg+xml,PD94bWwgdmVyc2lvbj0iMS4wIiBlbmNvZGluZz0idXMtYXNjaWkiIHN0YW5kYWxvbmU9Im5vIj8+PHN2ZyB4bWxucz0iaHR0cDovL3d3dy53My5vcmcvMjAwMC9zdmciIHhtbG5zOnhsaW5rPSJodHRwOi8vd3d3LnczLm9yZy8xOTk5L3hsaW5rIiBjb250ZW50U3R5bGVUeXBlPSJ0ZXh0L2NzcyIgaGVpZ2h0PSIxOTRweCIgcHJlc2VydmVBc3BlY3RSYXRpbz0ibm9uZSIgc3R5bGU9IndpZHRoOjM3OXB4O2hlaWdodDoxOTRweDtiYWNrZ3JvdW5kOiNGRkZGRkY7IiB2ZXJzaW9uPSIxLjEiIHZpZXdCb3g9IjAgMCAzNzkgMTk0IiB3aWR0aD0iMzc5cHgiIHpvb21BbmRQYW49Im1hZ25pZnkiPjxkZWZzLz48Zz48IS0tY2xhc3MgUGVyc29uLS0+PGcgaWQ9ImVsZW1fUGVyc29uIj48cmVjdCBjb2RlTGluZT0iMSIgZmlsbD0iI0YxRjFGMSIgaGVpZ2h0PSIxNzMuNzAzMSIgaWQ9IlBlcnNvbiIgcng9IjIuNSIgcnk9IjIuNSIgc3R5bGU9InN0cm9rZTojMTgxODE4O3N0cm9rZS13aWR0aDowLjU7IiB3aWR0aD0iMzU4IiB4PSI3IiB5PSI3Ii8+PGVsbGlwc2UgY3g9IjE1MC43NSIgY3k9IjI1LjkxNDEiIGZpbGw9IiNBREQxQjIiIHJ4PSIxMSIgcnk9IjExIiBzdHlsZT0ic3Ryb2tlOiMxODE4MTg7c3Ryb2tlLXdpZHRoOjEuMDsiLz48cGF0aCBkPSJNMTQ4LjM3NSwzMC4xNjQxIEwxNDguMzc1LDMxLjkxNDEgTDE1My4zMTI1LDMxLjkxNDEgTDE1My4zMTI1LDMwLjE2NDEgTDE0OC4zNzUsMzAuMTY0MSBaIE0xNDkuMDYyNSwzMC44NTE2IFExNDkuMDYyNSwzMC44NTE2IDE0OS4wNjI1LDIxLjY2NDEgTDE0Ny4zMTI1LDIxLjY2NDEgUTE0Ny4zMTI1LDIxLjY2NDEgMTQ3LjMxMjUsMzAuODUxNiBMMTQ5LjA2MjUsMzAuODUxNiBaIE0xNTIuNjI1LDMwLjg1MTYgTDE1NC4zNzUsMzAuODUxNiBRMTU0LjM3NSwzMC44NTE2IDE1NC4zNzUsMjguMDM5MSBMMTUyLjYyNSwyOC4wMzkxIFExNTIuNjI1LDI4LjAzOTEgMTUyLjYyNSwzMC44NTE2IFogTTE1Mi42MjUsMjEuNjY0MSBRMTUyLjYyNSwyMS42NjQxIDE1Mi42MjUsMjQuNDc2NiBMMTU0LjM3NSwyNC40NzY2IFExNTQuMzc1LDI0LjQ3NjYgMTU0LjM3NSwyMS42NjQxIEwxNTIuNjI1LDIxLjY2NDEgWiBNMTQ4LjM3NSwyMi4zNTE2IEwxNTMuMzEyNSwyMi4zNTE2IEwxNTMuMzEyNSwyMC42MDE2IEwxNDguMzc1LDIwLjYwMTYgTDE0OC4zNzUsMjIuMzUxNiBaICIgZmlsbD0iIzAwMDAwMCIvPjx0ZXh0IGZpbGw9IiMwMDAwMDAiIGZvbnQtZmFtaWx5PSJzYW5zLXNlcmlmIiBmb250LXNpemU9IjEyIiBmb250LXN0eWxlPSJpdGFsaWMiIGxlbmd0aEFkanVzdD0ic3BhY2luZyIgdGV4dExlbmd0aD0iNjYiIHg9IjE2OS4yNSIgeT0iMjMuMzQzOCI+JiMxNzE7SV9QZXJzb24mIzE4Nzs8L3RleHQ+PHRleHQgZmlsbD0iIzAwMDAwMCIgZm9udC1mYW1pbHk9InNhbnMtc2VyaWYiIGZvbnQtc2l6ZT0iMTQiIGxlbmd0aEFkanVzdD0ic3BhY2luZyIgdGV4dExlbmd0aD0iNDIiIHg9IjE4MS4yNSIgeT0iMzguMDc4MSI+UGVyc29uPC90ZXh0PjxsaW5lIHN0eWxlPSJzdHJva2U6IzE4MTgxODtzdHJva2Utd2lkdGg6MC41OyIgeDE9IjgiIHgyPSIzNjQiIHkxPSI0NC44MjgxIiB5Mj0iNDQuODI4MSIvPjxyZWN0IGZpbGw9Im5vbmUiIGhlaWdodD0iNiIgc3R5bGU9InN0cm9rZTojQzgyOTMwO3N0cm9rZS13aWR0aDoxLjA7IiB3aWR0aD0iNiIgeD0iMTUiIHk9IjU0LjgyMDMiLz48dGV4dCBmaWxsPSIjMDAwMDAwIiBmb250LWZhbWlseT0ic2Fucy1zZXJpZiIgZm9udC1zaXplPSIxNCIgbGVuZ3RoQWRqdXN0PSJzcGFjaW5nIiB0ZXh0TGVuZ3RoPSI4NSIgeD0iMjciIHk9IjYyLjA2MjUiPm5hbWU6IFN0cmluZzwvdGV4dD48cmVjdCBmaWxsPSJub25lIiBoZWlnaHQ9IjYiIHN0eWxlPSJzdHJva2U6I0M4MjkzMDtzdHJva2Utd2lkdGg6MS4wOyIgd2lkdGg9IjYiIHg9IjE1IiB5PSI2OS44MDQ3Ii8+PHRleHQgZmlsbD0iIzAwMDAwMCIgZm9udC1mYW1pbHk9InNhbnMtc2VyaWYiIGZvbnQtc2l6ZT0iMTQiIGxlbmd0aEFkanVzdD0ic3BhY2luZyIgdGV4dExlbmd0aD0iNTYiIHg9IjI3IiB5PSI3Ny4wNDY5Ij5hZ2U6IGludDwvdGV4dD48cmVjdCBmaWxsPSJub25lIiBoZWlnaHQ9IjYiIHN0eWxlPSJzdHJva2U6I0M4MjkzMDtzdHJva2Utd2lkdGg6MS4wOyIgd2lkdGg9IjYiIHg9IjE1IiB5PSI4NC43ODkxIi8+PHRleHQgZmlsbD0iIzAwMDAwMCIgZm9udC1mYW1pbHk9InNhbnMtc2VyaWYiIGZvbnQtc2l6ZT0iMTQiIGxlbmd0aEFkanVzdD0ic3BhY2luZyIgdGV4dExlbmd0aD0iMTA1IiB4PSIyNyIgeT0iOTIuMDMxMyI+YWRkcmVzczogU3RyaW5nPC90ZXh0PjxsaW5lIHN0eWxlPSJzdHJva2U6IzE4MTgxODtzdHJva2Utd2lkdGg6MC41OyIgeDE9IjgiIHgyPSIzNjQiIHkxPSI5Ny43ODEzIiB5Mj0iOTcuNzgxMyIvPjxlbGxpcHNlIGN4PSIxOCIgY3k9IjExMC43NzM0IiBmaWxsPSIjODRCRTg0IiByeD0iMyIgcnk9IjMiIHN0eWxlPSJzdHJva2U6IzAzODA0ODtzdHJva2Utd2lkdGg6MS4wOyIvPjx0ZXh0IGZpbGw9IiMwMDAwMDAiIGZvbnQtZmFtaWx5PSJzYW5zLXNlcmlmIiBmb250LXNpemU9IjE0IiBsZW5ndGhBZGp1c3Q9InNwYWNpbmciIHRleHRMZW5ndGg9IjU4IiB4PSIyNyIgeT0iMTE1LjAxNTYiPlBlcnNvbigpPC90ZXh0PjxlbGxpcHNlIGN4PSIxOCIgY3k9IjEyNS43NTc4IiBmaWxsPSIjODRCRTg0IiByeD0iMyIgcnk9IjMiIHN0eWxlPSJzdHJva2U6IzAzODA0ODtzdHJva2Utd2lkdGg6MS4wOyIvPjx0ZXh0IGZpbGw9IiMwMDAwMDAiIGZvbnQtZmFtaWx5PSJzYW5zLXNlcmlmIiBmb250LXNpemU9IjE0IiBsZW5ndGhBZGp1c3Q9InNwYWNpbmciIHRleHRMZW5ndGg9IjMzMiIgeD0iMjciIHk9IjEzMCI+UGVyc29uKG5hbWU6IFN0cmluZywgYWdlOiBpbnQsIGFkZHJlc3M6IFN0cmluZyk8L3RleHQ+PGVsbGlwc2UgY3g9IjE4IiBjeT0iMTQwLjc0MjIiIGZpbGw9IiM4NEJFODQiIHJ4PSIzIiByeT0iMyIgc3R5bGU9InN0cm9rZTojMDM4MDQ4O3N0cm9rZS13aWR0aDoxLjA7Ii8+PHRleHQgZmlsbD0iIzAwMDAwMCIgZm9udC1mYW1pbHk9InNhbnMtc2VyaWYiIGZvbnQtc2l6ZT0iMTQiIGxlbmd0aEFkanVzdD0ic3BhY2luZyIgdGV4dExlbmd0aD0iMTIyIiB4PSIyNyIgeT0iMTQ0Ljk4NDQiPmdldE5hbWUoKTogU3RyaW5nPC90ZXh0PjxlbGxpcHNlIGN4PSIxOCIgY3k9IjE1NS43MjY2IiBmaWxsPSIjODRCRTg0IiByeD0iMyIgcnk9IjMiIHN0eWxlPSJzdHJva2U6IzAzODA0ODtzdHJva2Utd2lkdGg6MS4wOyIvPjx0ZXh0IGZpbGw9IiMwMDAwMDAiIGZvbnQtZmFtaWx5PSJzYW5zLXNlcmlmIiBmb250LXNpemU9IjE0IiBsZW5ndGhBZGp1c3Q9InNwYWNpbmciIHRleHRMZW5ndGg9IjkzIiB4PSIyNyIgeT0iMTU5Ljk2ODgiPmdldEFnZSgpOiBpbnQ8L3RleHQ+PGVsbGlwc2UgY3g9IjE4IiBjeT0iMTcwLjcxMDkiIGZpbGw9IiM4NEJFODQiIHJ4PSIzIiByeT0iMyIgc3R5bGU9InN0cm9rZTojMDM4MDQ4O3N0cm9rZS13aWR0aDoxLjA7Ii8+PHRleHQgZmlsbD0iIzAwMDAwMCIgZm9udC1mYW1pbHk9InNhbnMtc2VyaWYiIGZvbnQtc2l6ZT0iMTQiIGxlbmd0aEFkanVzdD0ic3BhY2luZyIgdGV4dExlbmd0aD0iMTQyIiB4PSIyNyIgeT0iMTc0Ljk1MzEiPmdldEFkZHJlc3MoKTogU3RyaW5nPC90ZXh0PjwvZz48IS0tU1JDPVtJeXY5QjJ2TTI0V2pBaXhGS3gybnlPbzdDRXRpZ2hhSzU3R0x5WDlwS3dxS1dha0FDbEZJbUdBOXdLMS1QYnU5WDlFSUtmSFFOOG9hRzFqZ2I4T2NDV1ZQNTFzdTRKaGUtWTV3cWJEQl84M2dESkhIWjBNQUVnUTMxSTZNR3FHVy1mNktyVzgwXS0tPjwvZz48L3N2Zz4=;" parent="1" vertex="1">
            <mxGeometry x="-460.5" y="456" width="379" height="194" as="geometry" />
          </mxCell>
        </UserObject>
        <mxCell id="uYADebYyoeD6eWLToY8Z-8" style="edgeStyle=orthogonalEdgeStyle;rounded=0;orthogonalLoop=1;jettySize=auto;html=1;exitX=1;exitY=0.25;exitDx=0;exitDy=0;fontSize=12;startSize=8;endSize=8;dashed=1;dashPattern=8 8;startArrow=open;startFill=0;endArrow=none;endFill=0;" parent="1" source="kbrCUC_pbYBXq86tmqO2-53" target="kbrCUC_pbYBXq86tmqO2-3" edge="1">
          <mxGeometry relative="1" as="geometry">
            <mxPoint x="-520" y="380" as="targetPoint" />
            <Array as="points">
              <mxPoint x="-520" y="499" />
            </Array>
          </mxGeometry>
        </mxCell>
        <mxCell id="uYADebYyoeD6eWLToY8Z-9" value="classify" style="edgeLabel;html=1;align=center;verticalAlign=middle;resizable=0;points=[];fontSize=16;" parent="uYADebYyoeD6eWLToY8Z-8" vertex="1" connectable="0">
          <mxGeometry x="0.3646" y="-3" relative="1" as="geometry">
            <mxPoint as="offset" />
          </mxGeometry>
        </mxCell>
        <UserObject label="" plantUmlData="{&quot;data&quot;:&quot;@startuml\n\nenum AnimalKind {\n  + dog: String\n  + cat: String\n  + bird: String\n  + reptile: String\n  + rodent: String\n\n  ~ AnimalKind(value: String)\n  + toString(): String\n}\n\n@enduml\n&quot;,&quot;format&quot;:&quot;svg&quot;}" id="kbrCUC_pbYBXq86tmqO2-53">
          <mxCell style="shape=image;noLabel=1;verticalAlign=top;aspect=fixed;imageAspect=0;image=data:image/svg+xml,PD94bWwgdmVyc2lvbj0iMS4wIiBlbmNvZGluZz0idXMtYXNjaWkiIHN0YW5kYWxvbmU9Im5vIj8+PHN2ZyB4bWxucz0iaHR0cDovL3d3dy53My5vcmcvMjAwMC9zdmciIHhtbG5zOnhsaW5rPSJodHRwOi8vd3d3LnczLm9yZy8xOTk5L3hsaW5rIiBjb250ZW50U3R5bGVUeXBlPSJ0ZXh0L2NzcyIgaGVpZ2h0PSIxNzNweCIgcHJlc2VydmVBc3BlY3RSYXRpbz0ibm9uZSIgc3R5bGU9IndpZHRoOjIyNXB4O2hlaWdodDoxNzNweDtiYWNrZ3JvdW5kOiNGRkZGRkY7IiB2ZXJzaW9uPSIxLjEiIHZpZXdCb3g9IjAgMCAyMjUgMTczIiB3aWR0aD0iMjI1cHgiIHpvb21BbmRQYW49Im1hZ25pZnkiPjxkZWZzLz48Zz48IS0tY2xhc3MgQW5pbWFsS2luZC0tPjxnIGlkPSJlbGVtX0FuaW1hbEtpbmQiPjxyZWN0IGNvZGVMaW5lPSIxIiBmaWxsPSIjRjFGMUYxIiBoZWlnaHQ9IjE1Mi44OTA2IiBpZD0iQW5pbWFsS2luZCIgcng9IjIuNSIgcnk9IjIuNSIgc3R5bGU9InN0cm9rZTojMTgxODE4O3N0cm9rZS13aWR0aDowLjU7IiB3aWR0aD0iMjA0IiB4PSI3IiB5PSI3Ii8+PGVsbGlwc2UgY3g9IjY5LjI1IiBjeT0iMjMiIGZpbGw9IiNFQjkzN0YiIHJ4PSIxMSIgcnk9IjExIiBzdHlsZT0ic3Ryb2tlOiMxODE4MTg7c3Ryb2tlLXdpZHRoOjEuMDsiLz48cGF0aCBkPSJNNzIuODc1LDI5IEw3Mi44NzUsMjcuMjUgTDY3LjU2MjUsMjcuMjUgUTY3LjU2MjUsMjcuMjUgNjcuNTYyNSwyMy42ODc1IEw3MS44MTI1LDIzLjY4NzUgTDcxLjgxMjUsMjEuOTM3NSBMNjcuNTYyNSwyMS45Mzc1IEw2Ny41NjI1LDE5LjQzNzUgTDcyLjg3NSwxOS40Mzc1IEw3Mi44NzUsMTcuNjg3NSBMNjUuODEyNSwxNy42ODc1IFE2NS44MTI1LDE3LjY4NzUgNjUuODEyNSwyOSBMNzIuODc1LDI5IFogIiBmaWxsPSIjMDAwMDAwIi8+PHRleHQgZmlsbD0iIzAwMDAwMCIgZm9udC1mYW1pbHk9InNhbnMtc2VyaWYiIGZvbnQtc2l6ZT0iMTQiIGxlbmd0aEFkanVzdD0ic3BhY2luZyIgdGV4dExlbmd0aD0iNzEiIHg9Ijg5Ljc1IiB5PSIyOC43NDIyIj5BbmltYWxLaW5kPC90ZXh0PjxsaW5lIHN0eWxlPSJzdHJva2U6IzE4MTgxODtzdHJva2Utd2lkdGg6MC41OyIgeDE9IjgiIHgyPSIyMTAiIHkxPSIzOSIgeTI9IjM5Ii8+PGVsbGlwc2UgY3g9IjE4IiBjeT0iNTEuOTkyMiIgZmlsbD0ibm9uZSIgcng9IjMiIHJ5PSIzIiBzdHlsZT0ic3Ryb2tlOiMwMzgwNDg7c3Ryb2tlLXdpZHRoOjEuMDsiLz48dGV4dCBmaWxsPSIjMDAwMDAwIiBmb250LWZhbWlseT0ic2Fucy1zZXJpZiIgZm9udC1zaXplPSIxNCIgbGVuZ3RoQWRqdXN0PSJzcGFjaW5nIiB0ZXh0TGVuZ3RoPSI3NyIgeD0iMjciIHk9IjU2LjIzNDQiPmRvZzogU3RyaW5nPC90ZXh0PjxlbGxpcHNlIGN4PSIxOCIgY3k9IjY2Ljk3NjYiIGZpbGw9Im5vbmUiIHJ4PSIzIiByeT0iMyIgc3R5bGU9InN0cm9rZTojMDM4MDQ4O3N0cm9rZS13aWR0aDoxLjA7Ii8+PHRleHQgZmlsbD0iIzAwMDAwMCIgZm9udC1mYW1pbHk9InNhbnMtc2VyaWYiIGZvbnQtc2l6ZT0iMTQiIGxlbmd0aEFkanVzdD0ic3BhY2luZyIgdGV4dExlbmd0aD0iNzciIHg9IjI3IiB5PSI3MS4yMTg4Ij5jYXQ6IFN0cmluZzwvdGV4dD48ZWxsaXBzZSBjeD0iMTgiIGN5PSI4MS45NjA5IiBmaWxsPSJub25lIiByeD0iMyIgcnk9IjMiIHN0eWxlPSJzdHJva2U6IzAzODA0ODtzdHJva2Utd2lkdGg6MS4wOyIvPjx0ZXh0IGZpbGw9IiMwMDAwMDAiIGZvbnQtZmFtaWx5PSJzYW5zLXNlcmlmIiBmb250LXNpemU9IjE0IiBsZW5ndGhBZGp1c3Q9InNwYWNpbmciIHRleHRMZW5ndGg9Ijg0IiB4PSIyNyIgeT0iODYuMjAzMSI+YmlyZDogU3RyaW5nPC90ZXh0PjxlbGxpcHNlIGN4PSIxOCIgY3k9Ijk2Ljk0NTMiIGZpbGw9Im5vbmUiIHJ4PSIzIiByeT0iMyIgc3R5bGU9InN0cm9rZTojMDM4MDQ4O3N0cm9rZS13aWR0aDoxLjA7Ii8+PHRleHQgZmlsbD0iIzAwMDAwMCIgZm9udC1mYW1pbHk9InNhbnMtc2VyaWYiIGZvbnQtc2l6ZT0iMTQiIGxlbmd0aEFkanVzdD0ic3BhY2luZyIgdGV4dExlbmd0aD0iMTA1IiB4PSIyNyIgeT0iMTAxLjE4NzUiPnJlcHRpbGU6IFN0cmluZzwvdGV4dD48ZWxsaXBzZSBjeD0iMTgiIGN5PSIxMTEuOTI5NyIgZmlsbD0ibm9uZSIgcng9IjMiIHJ5PSIzIiBzdHlsZT0ic3Ryb2tlOiMwMzgwNDg7c3Ryb2tlLXdpZHRoOjEuMDsiLz48dGV4dCBmaWxsPSIjMDAwMDAwIiBmb250LWZhbWlseT0ic2Fucy1zZXJpZiIgZm9udC1zaXplPSIxNCIgbGVuZ3RoQWRqdXN0PSJzcGFjaW5nIiB0ZXh0TGVuZ3RoPSI5OCIgeD0iMjciIHk9IjExNi4xNzE5Ij5yb2RlbnQ6IFN0cmluZzwvdGV4dD48bGluZSBzdHlsZT0ic3Ryb2tlOiMxODE4MTg7c3Ryb2tlLXdpZHRoOjAuNTsiIHgxPSI4IiB4Mj0iMjEwIiB5MT0iMTIxLjkyMTkiIHkyPSIxMjEuOTIxOSIvPjxwb2x5Z29uIGZpbGw9IiM0MTc3QUYiIHBvaW50cz0iMTgsMTMwLjkxNDEsMTQsMTM2LjkxNDEsMjIsMTM2LjkxNDEiIHN0eWxlPSJzdHJva2U6IzE5NjNBMDtzdHJva2Utd2lkdGg6MS4wOyIvPjx0ZXh0IGZpbGw9IiMwMDAwMDAiIGZvbnQtZmFtaWx5PSJzYW5zLXNlcmlmIiBmb250LXNpemU9IjE0IiBsZW5ndGhBZGp1c3Q9InNwYWNpbmciIHRleHRMZW5ndGg9IjE3OCIgeD0iMjciIHk9IjEzOS4xNTYzIj5BbmltYWxLaW5kKHZhbHVlOiBTdHJpbmcpPC90ZXh0PjxlbGxpcHNlIGN4PSIxOCIgY3k9IjE0OS44OTg0IiBmaWxsPSIjODRCRTg0IiByeD0iMyIgcnk9IjMiIHN0eWxlPSJzdHJva2U6IzAzODA0ODtzdHJva2Utd2lkdGg6MS4wOyIvPjx0ZXh0IGZpbGw9IiMwMDAwMDAiIGZvbnQtZmFtaWx5PSJzYW5zLXNlcmlmIiBmb250LXNpemU9IjE0IiBsZW5ndGhBZGp1c3Q9InNwYWNpbmciIHRleHRMZW5ndGg9IjEyOCIgeD0iMjciIHk9IjE1NC4xNDA2Ij50b1N0cmluZygpOiBTdHJpbmc8L3RleHQ+PC9nPjwhLS1TUkM9W0l5cWhwTExtcENsQ0pTcG5waW5CS1FaY0tiM0dMYVo5SnhUSTIydWZvaW5CMV9FSjRxakctNGNQSElhZTBhTWYxSU1QRVFjZU9sYWZnTmE4VksybkVZSVJEQ2VJU3FoWDZaSjFFYWhvOEptREpSWWtNVzAwXS0tPjwvZz48L3N2Zz4=;" parent="1" vertex="1">
            <mxGeometry x="-798.5" y="456" width="225" height="173" as="geometry" />
          </mxCell>
        </UserObject>
        <mxCell id="fNJLwbQvEekjFqsQkFxo-18" style="edgeStyle=orthogonalEdgeStyle;rounded=0;orthogonalLoop=1;jettySize=auto;html=1;exitX=0.5;exitY=1;exitDx=0;exitDy=0;entryX=0.5;entryY=0;entryDx=0;entryDy=0;endArrow=diamond;endFill=1;" parent="1" source="kbrCUC_pbYBXq86tmqO2-65" edge="1">
          <mxGeometry relative="1" as="geometry">
            <mxPoint x="353.5" y="491" as="targetPoint" />
            <Array as="points">
              <mxPoint x="286" y="470" />
              <mxPoint x="354" y="470" />
            </Array>
          </mxGeometry>
        </mxCell>
        <mxCell id="uYADebYyoeD6eWLToY8Z-16" value="0..*" style="edgeLabel;html=1;align=center;verticalAlign=middle;resizable=0;points=[];fontSize=11;" parent="fNJLwbQvEekjFqsQkFxo-18" vertex="1" connectable="0">
          <mxGeometry x="-0.2187" relative="1" as="geometry">
            <mxPoint x="-43" y="-2" as="offset" />
          </mxGeometry>
        </mxCell>
        <mxCell id="uYADebYyoeD6eWLToY8Z-17" value="1" style="edgeLabel;html=1;align=center;verticalAlign=middle;resizable=0;points=[];fontSize=11;" parent="fNJLwbQvEekjFqsQkFxo-18" vertex="1" connectable="0">
          <mxGeometry x="-0.2187" relative="1" as="geometry">
            <mxPoint x="24" y="13" as="offset" />
          </mxGeometry>
        </mxCell>
        <UserObject label="" plantUmlData="{&quot;data&quot;:&quot;@startuml\n\nclass Node &lt;&lt;I_Node&gt;&gt;{\n  + currentCase: Case\n  - next: Node\n  - previous: Node\n\n  + Node(currentCase: Case)\n  + getPrev(): Node\n  + getNext(): Node\n  + setPrev(prev: Node): void\n  + setNext(next: Node): void\n  + getCase(): Case\n  + displayUrgentCase(): String\n}\n\n@enduml\n&quot;,&quot;format&quot;:&quot;svg&quot;}" id="kbrCUC_pbYBXq86tmqO2-65">
          <mxCell style="shape=image;noLabel=1;verticalAlign=top;aspect=fixed;imageAspect=0;image=data:image/svg+xml,PD94bWwgdmVyc2lvbj0iMS4wIiBlbmNvZGluZz0idXMtYXNjaWkiIHN0YW5kYWxvbmU9Im5vIj8+PHN2ZyB4bWxucz0iaHR0cDovL3d3dy53My5vcmcvMjAwMC9zdmciIHhtbG5zOnhsaW5rPSJodHRwOi8vd3d3LnczLm9yZy8xOTk5L3hsaW5rIiBjb250ZW50U3R5bGVUeXBlPSJ0ZXh0L2NzcyIgaGVpZ2h0PSIyMjRweCIgcHJlc2VydmVBc3BlY3RSYXRpbz0ibm9uZSIgc3R5bGU9IndpZHRoOjIzOHB4O2hlaWdodDoyMjRweDtiYWNrZ3JvdW5kOiNGRkZGRkY7IiB2ZXJzaW9uPSIxLjEiIHZpZXdCb3g9IjAgMCAyMzggMjI0IiB3aWR0aD0iMjM4cHgiIHpvb21BbmRQYW49Im1hZ25pZnkiPjxkZWZzLz48Zz48IS0tY2xhc3MgTm9kZS0tPjxnIGlkPSJlbGVtX05vZGUiPjxyZWN0IGNvZGVMaW5lPSIxIiBmaWxsPSIjRjFGMUYxIiBoZWlnaHQ9IjIwMy42NzE5IiBpZD0iTm9kZSIgcng9IjIuNSIgcnk9IjIuNSIgc3R5bGU9InN0cm9rZTojMTgxODE4O3N0cm9rZS13aWR0aDowLjU7IiB3aWR0aD0iMjE3IiB4PSI3IiB5PSI3Ii8+PGVsbGlwc2UgY3g9Ijg3LjI1IiBjeT0iMjUuOTE0MSIgZmlsbD0iI0FERDFCMiIgcng9IjExIiByeT0iMTEiIHN0eWxlPSJzdHJva2U6IzE4MTgxODtzdHJva2Utd2lkdGg6MS4wOyIvPjxwYXRoIGQ9Ik04NC44NzUsMzAuMTY0MSBMODQuODc1LDMxLjkxNDEgTDg5LjgxMjUsMzEuOTE0MSBMODkuODEyNSwzMC4xNjQxIEw4NC44NzUsMzAuMTY0MSBaIE04NS41NjI1LDMwLjg1MTYgUTg1LjU2MjUsMzAuODUxNiA4NS41NjI1LDIxLjY2NDEgTDgzLjgxMjUsMjEuNjY0MSBRODMuODEyNSwyMS42NjQxIDgzLjgxMjUsMzAuODUxNiBMODUuNTYyNSwzMC44NTE2IFogTTg5LjEyNSwzMC44NTE2IEw5MC44NzUsMzAuODUxNiBROTAuODc1LDMwLjg1MTYgOTAuODc1LDI4LjAzOTEgTDg5LjEyNSwyOC4wMzkxIFE4OS4xMjUsMjguMDM5MSA4OS4xMjUsMzAuODUxNiBaIE04OS4xMjUsMjEuNjY0MSBRODkuMTI1LDIxLjY2NDEgODkuMTI1LDI0LjQ3NjYgTDkwLjg3NSwyNC40NzY2IFE5MC44NzUsMjQuNDc2NiA5MC44NzUsMjEuNjY0MSBMODkuMTI1LDIxLjY2NDEgWiBNODQuODc1LDIyLjM1MTYgTDg5LjgxMjUsMjIuMzUxNiBMODkuODEyNSwyMC42MDE2IEw4NC44NzUsMjAuNjAxNiBMODQuODc1LDIyLjM1MTYgWiAiIGZpbGw9IiMwMDAwMDAiLz48dGV4dCBmaWxsPSIjMDAwMDAwIiBmb250LWZhbWlseT0ic2Fucy1zZXJpZiIgZm9udC1zaXplPSIxMiIgZm9udC1zdHlsZT0iaXRhbGljIiBsZW5ndGhBZGp1c3Q9InNwYWNpbmciIHRleHRMZW5ndGg9IjUyIiB4PSIxMDUuNzUiIHk9IjIzLjM0MzgiPiYjMTcxO0lfTm9kZSYjMTg3OzwvdGV4dD48dGV4dCBmaWxsPSIjMDAwMDAwIiBmb250LWZhbWlseT0ic2Fucy1zZXJpZiIgZm9udC1zaXplPSIxNCIgbGVuZ3RoQWRqdXN0PSJzcGFjaW5nIiB0ZXh0TGVuZ3RoPSIyOCIgeD0iMTE3Ljc1IiB5PSIzOC4wNzgxIj5Ob2RlPC90ZXh0PjxsaW5lIHN0eWxlPSJzdHJva2U6IzE4MTgxODtzdHJva2Utd2lkdGg6MC41OyIgeDE9IjgiIHgyPSIyMjMiIHkxPSI0NC44MjgxIiB5Mj0iNDQuODI4MSIvPjxlbGxpcHNlIGN4PSIxOCIgY3k9IjU3LjgyMDMiIGZpbGw9Im5vbmUiIHJ4PSIzIiByeT0iMyIgc3R5bGU9InN0cm9rZTojMDM4MDQ4O3N0cm9rZS13aWR0aDoxLjA7Ii8+PHRleHQgZmlsbD0iIzAwMDAwMCIgZm9udC1mYW1pbHk9InNhbnMtc2VyaWYiIGZvbnQtc2l6ZT0iMTQiIGxlbmd0aEFkanVzdD0ic3BhY2luZyIgdGV4dExlbmd0aD0iMTE5IiB4PSIyNyIgeT0iNjIuMDYyNSI+Y3VycmVudENhc2U6IENhc2U8L3RleHQ+PHJlY3QgZmlsbD0ibm9uZSIgaGVpZ2h0PSI2IiBzdHlsZT0ic3Ryb2tlOiNDODI5MzA7c3Ryb2tlLXdpZHRoOjEuMDsiIHdpZHRoPSI2IiB4PSIxNSIgeT0iNjkuODA0NyIvPjx0ZXh0IGZpbGw9IiMwMDAwMDAiIGZvbnQtZmFtaWx5PSJzYW5zLXNlcmlmIiBmb250LXNpemU9IjE0IiBsZW5ndGhBZGp1c3Q9InNwYWNpbmciIHRleHRMZW5ndGg9IjcwIiB4PSIyNyIgeT0iNzcuMDQ2OSI+bmV4dDogTm9kZTwvdGV4dD48cmVjdCBmaWxsPSJub25lIiBoZWlnaHQ9IjYiIHN0eWxlPSJzdHJva2U6I0M4MjkzMDtzdHJva2Utd2lkdGg6MS4wOyIgd2lkdGg9IjYiIHg9IjE1IiB5PSI4NC43ODkxIi8+PHRleHQgZmlsbD0iIzAwMDAwMCIgZm9udC1mYW1pbHk9InNhbnMtc2VyaWYiIGZvbnQtc2l6ZT0iMTQiIGxlbmd0aEFkanVzdD0ic3BhY2luZyIgdGV4dExlbmd0aD0iOTgiIHg9IjI3IiB5PSI5Mi4wMzEzIj5wcmV2aW91czogTm9kZTwvdGV4dD48bGluZSBzdHlsZT0ic3Ryb2tlOiMxODE4MTg7c3Ryb2tlLXdpZHRoOjAuNTsiIHgxPSI4IiB4Mj0iMjIzIiB5MT0iOTcuNzgxMyIgeTI9Ijk3Ljc4MTMiLz48ZWxsaXBzZSBjeD0iMTgiIGN5PSIxMTAuNzczNCIgZmlsbD0iIzg0QkU4NCIgcng9IjMiIHJ5PSIzIiBzdHlsZT0ic3Ryb2tlOiMwMzgwNDg7c3Ryb2tlLXdpZHRoOjEuMDsiLz48dGV4dCBmaWxsPSIjMDAwMDAwIiBmb250LWZhbWlseT0ic2Fucy1zZXJpZiIgZm9udC1zaXplPSIxNCIgbGVuZ3RoQWRqdXN0PSJzcGFjaW5nIiB0ZXh0TGVuZ3RoPSIxNjMiIHg9IjI3IiB5PSIxMTUuMDE1NiI+Tm9kZShjdXJyZW50Q2FzZTogQ2FzZSk8L3RleHQ+PGVsbGlwc2UgY3g9IjE4IiBjeT0iMTI1Ljc1NzgiIGZpbGw9IiM4NEJFODQiIHJ4PSIzIiByeT0iMyIgc3R5bGU9InN0cm9rZTojMDM4MDQ4O3N0cm9rZS13aWR0aDoxLjA7Ii8+PHRleHQgZmlsbD0iIzAwMDAwMCIgZm9udC1mYW1pbHk9InNhbnMtc2VyaWYiIGZvbnQtc2l6ZT0iMTQiIGxlbmd0aEFkanVzdD0ic3BhY2luZyIgdGV4dExlbmd0aD0iMTA3IiB4PSIyNyIgeT0iMTMwIj5nZXRQcmV2KCk6IE5vZGU8L3RleHQ+PGVsbGlwc2UgY3g9IjE4IiBjeT0iMTQwLjc0MjIiIGZpbGw9IiM4NEJFODQiIHJ4PSIzIiByeT0iMyIgc3R5bGU9InN0cm9rZTojMDM4MDQ4O3N0cm9rZS13aWR0aDoxLjA7Ii8+PHRleHQgZmlsbD0iIzAwMDAwMCIgZm9udC1mYW1pbHk9InNhbnMtc2VyaWYiIGZvbnQtc2l6ZT0iMTQiIGxlbmd0aEFkanVzdD0ic3BhY2luZyIgdGV4dExlbmd0aD0iMTA3IiB4PSIyNyIgeT0iMTQ0Ljk4NDQiPmdldE5leHQoKTogTm9kZTwvdGV4dD48ZWxsaXBzZSBjeD0iMTgiIGN5PSIxNTUuNzI2NiIgZmlsbD0iIzg0QkU4NCIgcng9IjMiIHJ5PSIzIiBzdHlsZT0ic3Ryb2tlOiMwMzgwNDg7c3Ryb2tlLXdpZHRoOjEuMDsiLz48dGV4dCBmaWxsPSIjMDAwMDAwIiBmb250LWZhbWlseT0ic2Fucy1zZXJpZiIgZm9udC1zaXplPSIxNCIgbGVuZ3RoQWRqdXN0PSJzcGFjaW5nIiB0ZXh0TGVuZ3RoPSIxNzciIHg9IjI3IiB5PSIxNTkuOTY4OCI+c2V0UHJldihwcmV2OiBOb2RlKTogdm9pZDwvdGV4dD48ZWxsaXBzZSBjeD0iMTgiIGN5PSIxNzAuNzEwOSIgZmlsbD0iIzg0QkU4NCIgcng9IjMiIHJ5PSIzIiBzdHlsZT0ic3Ryb2tlOiMwMzgwNDg7c3Ryb2tlLXdpZHRoOjEuMDsiLz48dGV4dCBmaWxsPSIjMDAwMDAwIiBmb250LWZhbWlseT0ic2Fucy1zZXJpZiIgZm9udC1zaXplPSIxNCIgbGVuZ3RoQWRqdXN0PSJzcGFjaW5nIiB0ZXh0TGVuZ3RoPSIxNzciIHg9IjI3IiB5PSIxNzQuOTUzMSI+c2V0TmV4dChuZXh0OiBOb2RlKTogdm9pZDwvdGV4dD48ZWxsaXBzZSBjeD0iMTgiIGN5PSIxODUuNjk1MyIgZmlsbD0iIzg0QkU4NCIgcng9IjMiIHJ5PSIzIiBzdHlsZT0ic3Ryb2tlOiMwMzgwNDg7c3Ryb2tlLXdpZHRoOjEuMDsiLz48dGV4dCBmaWxsPSIjMDAwMDAwIiBmb250LWZhbWlseT0ic2Fucy1zZXJpZiIgZm9udC1zaXplPSIxNCIgbGVuZ3RoQWRqdXN0PSJzcGFjaW5nIiB0ZXh0TGVuZ3RoPSIxMDciIHg9IjI3IiB5PSIxODkuOTM3NSI+Z2V0Q2FzZSgpOiBDYXNlPC90ZXh0PjxlbGxpcHNlIGN4PSIxOCIgY3k9IjIwMC42Nzk3IiBmaWxsPSIjODRCRTg0IiByeD0iMyIgcnk9IjMiIHN0eWxlPSJzdHJva2U6IzAzODA0ODtzdHJva2Utd2lkdGg6MS4wOyIvPjx0ZXh0IGZpbGw9IiMwMDAwMDAiIGZvbnQtZmFtaWx5PSJzYW5zLXNlcmlmIiBmb250LXNpemU9IjE0IiBsZW5ndGhBZGp1c3Q9InNwYWNpbmciIHRleHRMZW5ndGg9IjE5MSIgeD0iMjciIHk9IjIwNC45MjE5Ij5kaXNwbGF5VXJnZW50Q2FzZSgpOiBTdHJpbmc8L3RleHQ+PC9nPjwhLS1TUkM9W0l5djlCMnZNeUNqRklMTW1pVjZDMXA3aXhBZ3Y1MUlxNVA5Qll1Zkl5cWdTNHVqSmhISDA5NTFLTG80bGpRQjQyZ20xcDJxZUlZdEJwMnlqWFdnMURPOU82WFl3RFM1b3dRYWIwSzBqNmZmbUN5MVlWYTFKS1NJQWVVZjB2YUU0V1I5Yi1QYWZDNWNtM2VIWmE2TTF2ZTRpMTlhN1RSUXNHYWZjU0s1RU9jTGVLSmhLS0kzUHU5QVlwQm5xaGJlMF0tLT48L2c+PC9zdmc+;" parent="1" vertex="1">
            <mxGeometry x="166.5" y="239" width="238" height="224" as="geometry" />
          </mxCell>
        </UserObject>
        <mxCell id="fNJLwbQvEekjFqsQkFxo-19" style="edgeStyle=orthogonalEdgeStyle;rounded=0;orthogonalLoop=1;jettySize=auto;html=1;exitX=0.5;exitY=1;exitDx=0;exitDy=0;entryX=0.5;entryY=0;entryDx=0;entryDy=0;endArrow=none;endFill=0;" parent="1" source="kbrCUC_pbYBXq86tmqO2-66" target="kbrCUC_pbYBXq86tmqO2-69" edge="1">
          <mxGeometry relative="1" as="geometry">
            <Array as="points">
              <mxPoint x="377" y="810" />
              <mxPoint x="307" y="810" />
            </Array>
          </mxGeometry>
        </mxCell>
        <mxCell id="uYADebYyoeD6eWLToY8Z-35" value="queue" style="edgeLabel;html=1;align=center;verticalAlign=middle;resizable=0;points=[];fontSize=16;" parent="fNJLwbQvEekjFqsQkFxo-19" vertex="1" connectable="0">
          <mxGeometry x="0.4555" y="1" relative="1" as="geometry">
            <mxPoint x="5" y="-13" as="offset" />
          </mxGeometry>
        </mxCell>
        <UserObject label="" plantUmlData="{&quot;data&quot;:&quot;@startuml\n\nclass List &lt;&lt;I_List&gt;&gt;{\n  - front: Node\n  - tail: Node\n  - size: int\n\n  + List()\n  + append(node: Node): boolean\n  + getHead(): Node\n  + getTail(): Node\n  + insert(index: int, node: Node): boolean\n  + insertHead(node: Node): void\n  + remove(index: int): boolean\n  + removeNode(node: Node): void\n  + swap(first_index: int, second_index: int): boolean\n  - getNodeAtIndex(nodeIndex: int)\n  + sort(): void\n  + findIndex(ownerName: String): int\n}\n\n@enduml\n&quot;,&quot;format&quot;:&quot;svg&quot;}" id="kbrCUC_pbYBXq86tmqO2-66">
          <mxCell style="shape=image;noLabel=1;verticalAlign=top;aspect=fixed;imageAspect=0;image=data:image/svg+xml,PD94bWwgdmVyc2lvbj0iMS4wIiBlbmNvZGluZz0idXMtYXNjaWkiIHN0YW5kYWxvbmU9Im5vIj8+PHN2ZyB4bWxucz0iaHR0cDovL3d3dy53My5vcmcvMjAwMC9zdmciIHhtbG5zOnhsaW5rPSJodHRwOi8vd3d3LnczLm9yZy8xOTk5L3hsaW5rIiBjb250ZW50U3R5bGVUeXBlPSJ0ZXh0L2NzcyIgaGVpZ2h0PSIyOTlweCIgcHJlc2VydmVBc3BlY3RSYXRpbz0ibm9uZSIgc3R5bGU9IndpZHRoOjQwMHB4O2hlaWdodDoyOTlweDtiYWNrZ3JvdW5kOiNGRkZGRkY7IiB2ZXJzaW9uPSIxLjEiIHZpZXdCb3g9IjAgMCA0MDAgMjk5IiB3aWR0aD0iNDAwcHgiIHpvb21BbmRQYW49Im1hZ25pZnkiPjxkZWZzLz48Zz48IS0tY2xhc3MgTGlzdC0tPjxnIGlkPSJlbGVtX0xpc3QiPjxyZWN0IGNvZGVMaW5lPSIxIiBmaWxsPSIjRjFGMUYxIiBoZWlnaHQ9IjI3OC41OTM4IiBpZD0iTGlzdCIgcng9IjIuNSIgcnk9IjIuNSIgc3R5bGU9InN0cm9rZTojMTgxODE4O3N0cm9rZS13aWR0aDowLjU7IiB3aWR0aD0iMzc5IiB4PSI3IiB5PSI3Ii8+PGVsbGlwc2UgY3g9IjE2OS43NSIgY3k9IjI1LjkxNDEiIGZpbGw9IiNBREQxQjIiIHJ4PSIxMSIgcnk9IjExIiBzdHlsZT0ic3Ryb2tlOiMxODE4MTg7c3Ryb2tlLXdpZHRoOjEuMDsiLz48cGF0aCBkPSJNMTY3LjM3NSwzMC4xNjQxIEwxNjcuMzc1LDMxLjkxNDEgTDE3Mi4zMTI1LDMxLjkxNDEgTDE3Mi4zMTI1LDMwLjE2NDEgTDE2Ny4zNzUsMzAuMTY0MSBaIE0xNjguMDYyNSwzMC44NTE2IFExNjguMDYyNSwzMC44NTE2IDE2OC4wNjI1LDIxLjY2NDEgTDE2Ni4zMTI1LDIxLjY2NDEgUTE2Ni4zMTI1LDIxLjY2NDEgMTY2LjMxMjUsMzAuODUxNiBMMTY4LjA2MjUsMzAuODUxNiBaIE0xNzEuNjI1LDMwLjg1MTYgTDE3My4zNzUsMzAuODUxNiBRMTczLjM3NSwzMC44NTE2IDE3My4zNzUsMjguMDM5MSBMMTcxLjYyNSwyOC4wMzkxIFExNzEuNjI1LDI4LjAzOTEgMTcxLjYyNSwzMC44NTE2IFogTTE3MS42MjUsMjEuNjY0MSBRMTcxLjYyNSwyMS42NjQxIDE3MS42MjUsMjQuNDc2NiBMMTczLjM3NSwyNC40NzY2IFExNzMuMzc1LDI0LjQ3NjYgMTczLjM3NSwyMS42NjQxIEwxNzEuNjI1LDIxLjY2NDEgWiBNMTY3LjM3NSwyMi4zNTE2IEwxNzIuMzEyNSwyMi4zNTE2IEwxNzIuMzEyNSwyMC42MDE2IEwxNjcuMzc1LDIwLjYwMTYgTDE2Ny4zNzUsMjIuMzUxNiBaICIgZmlsbD0iIzAwMDAwMCIvPjx0ZXh0IGZpbGw9IiMwMDAwMDAiIGZvbnQtZmFtaWx5PSJzYW5zLXNlcmlmIiBmb250LXNpemU9IjEyIiBmb250LXN0eWxlPSJpdGFsaWMiIGxlbmd0aEFkanVzdD0ic3BhY2luZyIgdGV4dExlbmd0aD0iNDkiIHg9IjE4OC4yNSIgeT0iMjMuMzQzOCI+JiMxNzE7SV9MaXN0JiMxODc7PC90ZXh0Pjx0ZXh0IGZpbGw9IiMwMDAwMDAiIGZvbnQtZmFtaWx5PSJzYW5zLXNlcmlmIiBmb250LXNpemU9IjE0IiBsZW5ndGhBZGp1c3Q9InNwYWNpbmciIHRleHRMZW5ndGg9IjI4IiB4PSIxOTguNzUiIHk9IjM4LjA3ODEiPkxpc3Q8L3RleHQ+PGxpbmUgc3R5bGU9InN0cm9rZTojMTgxODE4O3N0cm9rZS13aWR0aDowLjU7IiB4MT0iOCIgeDI9IjM4NSIgeTE9IjQ0LjgyODEiIHkyPSI0NC44MjgxIi8+PHJlY3QgZmlsbD0ibm9uZSIgaGVpZ2h0PSI2IiBzdHlsZT0ic3Ryb2tlOiNDODI5MzA7c3Ryb2tlLXdpZHRoOjEuMDsiIHdpZHRoPSI2IiB4PSIxNSIgeT0iNTQuODIwMyIvPjx0ZXh0IGZpbGw9IiMwMDAwMDAiIGZvbnQtZmFtaWx5PSJzYW5zLXNlcmlmIiBmb250LXNpemU9IjE0IiBsZW5ndGhBZGp1c3Q9InNwYWNpbmciIHRleHRMZW5ndGg9Ijc3IiB4PSIyNyIgeT0iNjIuMDYyNSI+ZnJvbnQ6IE5vZGU8L3RleHQ+PHJlY3QgZmlsbD0ibm9uZSIgaGVpZ2h0PSI2IiBzdHlsZT0ic3Ryb2tlOiNDODI5MzA7c3Ryb2tlLXdpZHRoOjEuMDsiIHdpZHRoPSI2IiB4PSIxNSIgeT0iNjkuODA0NyIvPjx0ZXh0IGZpbGw9IiMwMDAwMDAiIGZvbnQtZmFtaWx5PSJzYW5zLXNlcmlmIiBmb250LXNpemU9IjE0IiBsZW5ndGhBZGp1c3Q9InNwYWNpbmciIHRleHRMZW5ndGg9IjcwIiB4PSIyNyIgeT0iNzcuMDQ2OSI+dGFpbDogTm9kZTwvdGV4dD48cmVjdCBmaWxsPSJub25lIiBoZWlnaHQ9IjYiIHN0eWxlPSJzdHJva2U6I0M4MjkzMDtzdHJva2Utd2lkdGg6MS4wOyIgd2lkdGg9IjYiIHg9IjE1IiB5PSI4NC43ODkxIi8+PHRleHQgZmlsbD0iIzAwMDAwMCIgZm9udC1mYW1pbHk9InNhbnMtc2VyaWYiIGZvbnQtc2l6ZT0iMTQiIGxlbmd0aEFkanVzdD0ic3BhY2luZyIgdGV4dExlbmd0aD0iNjMiIHg9IjI3IiB5PSI5Mi4wMzEzIj5zaXplOiBpbnQ8L3RleHQ+PGxpbmUgc3R5bGU9InN0cm9rZTojMTgxODE4O3N0cm9rZS13aWR0aDowLjU7IiB4MT0iOCIgeDI9IjM4NSIgeTE9Ijk3Ljc4MTMiIHkyPSI5Ny43ODEzIi8+PGVsbGlwc2UgY3g9IjE4IiBjeT0iMTEwLjc3MzQiIGZpbGw9IiM4NEJFODQiIHJ4PSIzIiByeT0iMyIgc3R5bGU9InN0cm9rZTojMDM4MDQ4O3N0cm9rZS13aWR0aDoxLjA7Ii8+PHRleHQgZmlsbD0iIzAwMDAwMCIgZm9udC1mYW1pbHk9InNhbnMtc2VyaWYiIGZvbnQtc2l6ZT0iMTQiIGxlbmd0aEFkanVzdD0ic3BhY2luZyIgdGV4dExlbmd0aD0iNDQiIHg9IjI3IiB5PSIxMTUuMDE1NiI+TGlzdCgpPC90ZXh0PjxlbGxpcHNlIGN4PSIxOCIgY3k9IjEyNS43NTc4IiBmaWxsPSIjODRCRTg0IiByeD0iMyIgcnk9IjMiIHN0eWxlPSJzdHJva2U6IzAzODA0ODtzdHJva2Utd2lkdGg6MS4wOyIvPjx0ZXh0IGZpbGw9IiMwMDAwMDAiIGZvbnQtZmFtaWx5PSJzYW5zLXNlcmlmIiBmb250LXNpemU9IjE0IiBsZW5ndGhBZGp1c3Q9InNwYWNpbmciIHRleHRMZW5ndGg9IjE5MSIgeD0iMjciIHk9IjEzMCI+YXBwZW5kKG5vZGU6IE5vZGUpOiBib29sZWFuPC90ZXh0PjxlbGxpcHNlIGN4PSIxOCIgY3k9IjE0MC43NDIyIiBmaWxsPSIjODRCRTg0IiByeD0iMyIgcnk9IjMiIHN0eWxlPSJzdHJva2U6IzAzODA0ODtzdHJva2Utd2lkdGg6MS4wOyIvPjx0ZXh0IGZpbGw9IiMwMDAwMDAiIGZvbnQtZmFtaWx5PSJzYW5zLXNlcmlmIiBmb250LXNpemU9IjE0IiBsZW5ndGhBZGp1c3Q9InNwYWNpbmciIHRleHRMZW5ndGg9IjEwNyIgeD0iMjciIHk9IjE0NC45ODQ0Ij5nZXRIZWFkKCk6IE5vZGU8L3RleHQ+PGVsbGlwc2UgY3g9IjE4IiBjeT0iMTU1LjcyNjYiIGZpbGw9IiM4NEJFODQiIHJ4PSIzIiByeT0iMyIgc3R5bGU9InN0cm9rZTojMDM4MDQ4O3N0cm9rZS13aWR0aDoxLjA7Ii8+PHRleHQgZmlsbD0iIzAwMDAwMCIgZm9udC1mYW1pbHk9InNhbnMtc2VyaWYiIGZvbnQtc2l6ZT0iMTQiIGxlbmd0aEFkanVzdD0ic3BhY2luZyIgdGV4dExlbmd0aD0iMTA3IiB4PSIyNyIgeT0iMTU5Ljk2ODgiPmdldFRhaWwoKTogTm9kZTwvdGV4dD48ZWxsaXBzZSBjeD0iMTgiIGN5PSIxNzAuNzEwOSIgZmlsbD0iIzg0QkU4NCIgcng9IjMiIHJ5PSIzIiBzdHlsZT0ic3Ryb2tlOiMwMzgwNDg7c3Ryb2tlLXdpZHRoOjEuMDsiLz48dGV4dCBmaWxsPSIjMDAwMDAwIiBmb250LWZhbWlseT0ic2Fucy1zZXJpZiIgZm9udC1zaXplPSIxNCIgbGVuZ3RoQWRqdXN0PSJzcGFjaW5nIiB0ZXh0TGVuZ3RoPSIyNzUiIHg9IjI3IiB5PSIxNzQuOTUzMSI+aW5zZXJ0KGluZGV4OiBpbnQsIG5vZGU6IE5vZGUpOiBib29sZWFuPC90ZXh0PjxlbGxpcHNlIGN4PSIxOCIgY3k9IjE4NS42OTUzIiBmaWxsPSIjODRCRTg0IiByeD0iMyIgcnk9IjMiIHN0eWxlPSJzdHJva2U6IzAzODA0ODtzdHJva2Utd2lkdGg6MS4wOyIvPjx0ZXh0IGZpbGw9IiMwMDAwMDAiIGZvbnQtZmFtaWx5PSJzYW5zLXNlcmlmIiBmb250LXNpemU9IjE0IiBsZW5ndGhBZGp1c3Q9InNwYWNpbmciIHRleHRMZW5ndGg9IjE5OCIgeD0iMjciIHk9IjE4OS45Mzc1Ij5pbnNlcnRIZWFkKG5vZGU6IE5vZGUpOiB2b2lkPC90ZXh0PjxlbGxpcHNlIGN4PSIxOCIgY3k9IjIwMC42Nzk3IiBmaWxsPSIjODRCRTg0IiByeD0iMyIgcnk9IjMiIHN0eWxlPSJzdHJva2U6IzAzODA0ODtzdHJva2Utd2lkdGg6MS4wOyIvPjx0ZXh0IGZpbGw9IiMwMDAwMDAiIGZvbnQtZmFtaWx5PSJzYW5zLXNlcmlmIiBmb250LXNpemU9IjE0IiBsZW5ndGhBZGp1c3Q9InNwYWNpbmciIHRleHRMZW5ndGg9IjE5MiIgeD0iMjciIHk9IjIwNC45MjE5Ij5yZW1vdmUoaW5kZXg6IGludCk6IGJvb2xlYW48L3RleHQ+PGVsbGlwc2UgY3g9IjE4IiBjeT0iMjE1LjY2NDEiIGZpbGw9IiM4NEJFODQiIHJ4PSIzIiByeT0iMyIgc3R5bGU9InN0cm9rZTojMDM4MDQ4O3N0cm9rZS13aWR0aDoxLjA7Ii8+PHRleHQgZmlsbD0iIzAwMDAwMCIgZm9udC1mYW1pbHk9InNhbnMtc2VyaWYiIGZvbnQtc2l6ZT0iMTQiIGxlbmd0aEFkanVzdD0ic3BhY2luZyIgdGV4dExlbmd0aD0iMTk5IiB4PSIyNyIgeT0iMjE5LjkwNjMiPnJlbW92ZU5vZGUobm9kZTogTm9kZSk6IHZvaWQ8L3RleHQ+PGVsbGlwc2UgY3g9IjE4IiBjeT0iMjMwLjY0ODQiIGZpbGw9IiM4NEJFODQiIHJ4PSIzIiByeT0iMyIgc3R5bGU9InN0cm9rZTojMDM4MDQ4O3N0cm9rZS13aWR0aDoxLjA7Ii8+PHRleHQgZmlsbD0iIzAwMDAwMCIgZm9udC1mYW1pbHk9InNhbnMtc2VyaWYiIGZvbnQtc2l6ZT0iMTQiIGxlbmd0aEFkanVzdD0ic3BhY2luZyIgdGV4dExlbmd0aD0iMzUzIiB4PSIyNyIgeT0iMjM0Ljg5MDYiPnN3YXAoZmlyc3RfaW5kZXg6IGludCwgc2Vjb25kX2luZGV4OiBpbnQpOiBib29sZWFuPC90ZXh0PjxyZWN0IGZpbGw9IiNGMjRENUMiIGhlaWdodD0iNiIgc3R5bGU9InN0cm9rZTojQzgyOTMwO3N0cm9rZS13aWR0aDoxLjA7IiB3aWR0aD0iNiIgeD0iMTUiIHk9IjI0Mi42MzI4Ii8+PHRleHQgZmlsbD0iIzAwMDAwMCIgZm9udC1mYW1pbHk9InNhbnMtc2VyaWYiIGZvbnQtc2l6ZT0iMTQiIGxlbmd0aEFkanVzdD0ic3BhY2luZyIgdGV4dExlbmd0aD0iMjEyIiB4PSIyNyIgeT0iMjQ5Ljg3NSI+Z2V0Tm9kZUF0SW5kZXgobm9kZUluZGV4OiBpbnQpPC90ZXh0PjxlbGxpcHNlIGN4PSIxOCIgY3k9IjI2MC42MTcyIiBmaWxsPSIjODRCRTg0IiByeD0iMyIgcnk9IjMiIHN0eWxlPSJzdHJva2U6IzAzODA0ODtzdHJva2Utd2lkdGg6MS4wOyIvPjx0ZXh0IGZpbGw9IiMwMDAwMDAiIGZvbnQtZmFtaWx5PSJzYW5zLXNlcmlmIiBmb250LXNpemU9IjE0IiBsZW5ndGhBZGp1c3Q9InNwYWNpbmciIHRleHRMZW5ndGg9Ijg2IiB4PSIyNyIgeT0iMjY0Ljg1OTQiPnNvcnQoKTogdm9pZDwvdGV4dD48ZWxsaXBzZSBjeD0iMTgiIGN5PSIyNzUuNjAxNiIgZmlsbD0iIzg0QkU4NCIgcng9IjMiIHJ5PSIzIiBzdHlsZT0ic3Ryb2tlOiMwMzgwNDg7c3Ryb2tlLXdpZHRoOjEuMDsiLz48dGV4dCBmaWxsPSIjMDAwMDAwIiBmb250LWZhbWlseT0ic2Fucy1zZXJpZiIgZm9udC1zaXplPSIxNCIgbGVuZ3RoQWRqdXN0PSJzcGFjaW5nIiB0ZXh0TGVuZ3RoPSIyMzUiIHg9IjI3IiB5PSIyNzkuODQzOCI+ZmluZEluZGV4KG93bmVyTmFtZTogU3RyaW5nKTogaW50PC90ZXh0PjwvZz48IS0tU1JDPVtUUDNEUWlDbTM4M2xWR2VUN1JnLUcyWTV0WE9PbE1wdHVETEE0UUhJaTRLeExsaGtpc0xlcXE1ay1sZHlJVjluejJkMTFvTTV4UlJoSXgzUnRMTzA2bllZaUJQbWE4Mk1nd1RuYllSd25IUThUUE5KakliU093NlY5a0pXRTlFTFJyaHU1WGRIaV9MRmdFX2VXc2lVRGdqelBWekJaSlhYTDRTU3lDU2NsUzZZaXhBY1ZNNGtHaTYwWTZVdnU0cHNKcjN4dlRNMjg1dHp2MFFBSVZsdkhXY0ZtZzVWeTZ4QU9TTXFyd3VHdmt3VVIzTEJsZDgtUWlZc1lpa0xDSHh5RVVfcGdQN3VyREdsbF95MV0tLT48L2c+PC9zdmc+;" parent="1" vertex="1">
            <mxGeometry x="176.5" y="491" width="400" height="299" as="geometry" />
          </mxCell>
        </UserObject>
        <UserObject label="" plantUmlData="{&quot;data&quot;:&quot;@startuml\n\nclass Veterinary &lt;&lt;I_Veterinary&gt;&gt;{\n  - doctors: Doctor[]\n  - assistants: Assistant[]\n  - queue: List\n\n  + Veterinary(doctors: Doctor[], assistants: Assistant[])\n  + Veterinary()\n  + getDoctors(): Doctor[]\n  + getAssistants(): Assistant[]\n  + addCase(newCase: Case): boolean\n  - haveVeterinaryAuthorize(newCase: Case): boolean\n  + getCaseList(): List\n  + removeCase(patientName: String): boolean\n  + printMostUrgentCases(k: int): void\n  - calculateTreatmentTime(treatmentType: String): int\n  + execute(): ArrayList&lt;String&gt;\n  - isDoctorAuthorized(doctors: Doctor, node: Node): boolean\n  - concludeCase(doctor: Doctor): String\n  - registerDoctorCase(time: int, currentCase: Node, doctor: Doctor): void\n  - findNextCase(doctor: Doctor): Node\n}\n\n@enduml\n&quot;,&quot;format&quot;:&quot;svg&quot;}" id="kbrCUC_pbYBXq86tmqO2-69">
          <mxCell style="shape=image;noLabel=1;verticalAlign=top;aspect=fixed;imageAspect=0;image=data:image/svg+xml,PD94bWwgdmVyc2lvbj0iMS4wIiBlbmNvZGluZz0idXMtYXNjaWkiIHN0YW5kYWxvbmU9Im5vIj8+PHN2ZyB4bWxucz0iaHR0cDovL3d3dy53My5vcmcvMjAwMC9zdmciIHhtbG5zOnhsaW5rPSJodHRwOi8vd3d3LnczLm9yZy8xOTk5L3hsaW5rIiBjb250ZW50U3R5bGVUeXBlPSJ0ZXh0L2NzcyIgaGVpZ2h0PSIzNDRweCIgcHJlc2VydmVBc3BlY3RSYXRpbz0ibm9uZSIgc3R5bGU9IndpZHRoOjU0MHB4O2hlaWdodDozNDRweDtiYWNrZ3JvdW5kOiNGRkZGRkY7IiB2ZXJzaW9uPSIxLjEiIHZpZXdCb3g9IjAgMCA1NDAgMzQ0IiB3aWR0aD0iNTQwcHgiIHpvb21BbmRQYW49Im1hZ25pZnkiPjxkZWZzLz48Zz48IS0tY2xhc3MgVmV0ZXJpbmFyeS0tPjxnIGlkPSJlbGVtX1ZldGVyaW5hcnkiPjxyZWN0IGNvZGVMaW5lPSIxIiBmaWxsPSIjRjFGMUYxIiBoZWlnaHQ9IjMyMy41NDY5IiBpZD0iVmV0ZXJpbmFyeSIgcng9IjIuNSIgcnk9IjIuNSIgc3R5bGU9InN0cm9rZTojMTgxODE4O3N0cm9rZS13aWR0aDowLjU7IiB3aWR0aD0iNTE5IiB4PSI3IiB5PSI3Ii8+PGVsbGlwc2UgY3g9IjIxOC4yNSIgY3k9IjI1LjkxNDEiIGZpbGw9IiNBREQxQjIiIHJ4PSIxMSIgcnk9IjExIiBzdHlsZT0ic3Ryb2tlOiMxODE4MTg7c3Ryb2tlLXdpZHRoOjEuMDsiLz48cGF0aCBkPSJNMjE1Ljg3NSwzMC4xNjQxIEwyMTUuODc1LDMxLjkxNDEgTDIyMC44MTI1LDMxLjkxNDEgTDIyMC44MTI1LDMwLjE2NDEgTDIxNS44NzUsMzAuMTY0MSBaIE0yMTYuNTYyNSwzMC44NTE2IFEyMTYuNTYyNSwzMC44NTE2IDIxNi41NjI1LDIxLjY2NDEgTDIxNC44MTI1LDIxLjY2NDEgUTIxNC44MTI1LDIxLjY2NDEgMjE0LjgxMjUsMzAuODUxNiBMMjE2LjU2MjUsMzAuODUxNiBaIE0yMjAuMTI1LDMwLjg1MTYgTDIyMS44NzUsMzAuODUxNiBRMjIxLjg3NSwzMC44NTE2IDIyMS44NzUsMjguMDM5MSBMMjIwLjEyNSwyOC4wMzkxIFEyMjAuMTI1LDI4LjAzOTEgMjIwLjEyNSwzMC44NTE2IFogTTIyMC4xMjUsMjEuNjY0MSBRMjIwLjEyNSwyMS42NjQxIDIyMC4xMjUsMjQuNDc2NiBMMjIxLjg3NSwyNC40NzY2IFEyMjEuODc1LDI0LjQ3NjYgMjIxLjg3NSwyMS42NjQxIEwyMjAuMTI1LDIxLjY2NDEgWiBNMjE1Ljg3NSwyMi4zNTE2IEwyMjAuODEyNSwyMi4zNTE2IEwyMjAuODEyNSwyMC42MDE2IEwyMTUuODc1LDIwLjYwMTYgTDIxNS44NzUsMjIuMzUxNiBaICIgZmlsbD0iIzAwMDAwMCIvPjx0ZXh0IGZpbGw9IiMwMDAwMDAiIGZvbnQtZmFtaWx5PSJzYW5zLXNlcmlmIiBmb250LXNpemU9IjEyIiBmb250LXN0eWxlPSJpdGFsaWMiIGxlbmd0aEFkanVzdD0ic3BhY2luZyIgdGV4dExlbmd0aD0iOTIiIHg9IjIzNi43NSIgeT0iMjMuMzQzOCI+JiMxNzE7SV9WZXRlcmluYXJ5JiMxODc7PC90ZXh0Pjx0ZXh0IGZpbGw9IiMwMDAwMDAiIGZvbnQtZmFtaWx5PSJzYW5zLXNlcmlmIiBmb250LXNpemU9IjE0IiBsZW5ndGhBZGp1c3Q9InNwYWNpbmciIHRleHRMZW5ndGg9IjcwIiB4PSIyNDcuNzUiIHk9IjM4LjA3ODEiPlZldGVyaW5hcnk8L3RleHQ+PGxpbmUgc3R5bGU9InN0cm9rZTojMTgxODE4O3N0cm9rZS13aWR0aDowLjU7IiB4MT0iOCIgeDI9IjUyNSIgeTE9IjQ0LjgyODEiIHkyPSI0NC44MjgxIi8+PHJlY3QgZmlsbD0ibm9uZSIgaGVpZ2h0PSI2IiBzdHlsZT0ic3Ryb2tlOiNDODI5MzA7c3Ryb2tlLXdpZHRoOjEuMDsiIHdpZHRoPSI2IiB4PSIxNSIgeT0iNTQuODIwMyIvPjx0ZXh0IGZpbGw9IiMwMDAwMDAiIGZvbnQtZmFtaWx5PSJzYW5zLXNlcmlmIiBmb250LXNpemU9IjE0IiBsZW5ndGhBZGp1c3Q9InNwYWNpbmciIHRleHRMZW5ndGg9IjExOSIgeD0iMjciIHk9IjYyLjA2MjUiPmRvY3RvcnM6IERvY3RvcltdPC90ZXh0PjxyZWN0IGZpbGw9Im5vbmUiIGhlaWdodD0iNiIgc3R5bGU9InN0cm9rZTojQzgyOTMwO3N0cm9rZS13aWR0aDoxLjA7IiB3aWR0aD0iNiIgeD0iMTUiIHk9IjY5LjgwNDciLz48dGV4dCBmaWxsPSIjMDAwMDAwIiBmb250LWZhbWlseT0ic2Fucy1zZXJpZiIgZm9udC1zaXplPSIxNCIgbGVuZ3RoQWRqdXN0PSJzcGFjaW5nIiB0ZXh0TGVuZ3RoPSIxNjEiIHg9IjI3IiB5PSI3Ny4wNDY5Ij5hc3Npc3RhbnRzOiBBc3Npc3RhbnRbXTwvdGV4dD48cmVjdCBmaWxsPSJub25lIiBoZWlnaHQ9IjYiIHN0eWxlPSJzdHJva2U6I0M4MjkzMDtzdHJva2Utd2lkdGg6MS4wOyIgd2lkdGg9IjYiIHg9IjE1IiB5PSI4NC43ODkxIi8+PHRleHQgZmlsbD0iIzAwMDAwMCIgZm9udC1mYW1pbHk9InNhbnMtc2VyaWYiIGZvbnQtc2l6ZT0iMTQiIGxlbmd0aEFkanVzdD0ic3BhY2luZyIgdGV4dExlbmd0aD0iNzciIHg9IjI3IiB5PSI5Mi4wMzEzIj5xdWV1ZTogTGlzdDwvdGV4dD48bGluZSBzdHlsZT0ic3Ryb2tlOiMxODE4MTg7c3Ryb2tlLXdpZHRoOjAuNTsiIHgxPSI4IiB4Mj0iNTI1IiB5MT0iOTcuNzgxMyIgeTI9Ijk3Ljc4MTMiLz48ZWxsaXBzZSBjeD0iMTgiIGN5PSIxMTAuNzczNCIgZmlsbD0iIzg0QkU4NCIgcng9IjMiIHJ5PSIzIiBzdHlsZT0ic3Ryb2tlOiMwMzgwNDg7c3Ryb2tlLXdpZHRoOjEuMDsiLz48dGV4dCBmaWxsPSIjMDAwMDAwIiBmb250LWZhbWlseT0ic2Fucy1zZXJpZiIgZm9udC1zaXplPSIxNCIgbGVuZ3RoQWRqdXN0PSJzcGFjaW5nIiB0ZXh0TGVuZ3RoPSIzODAiIHg9IjI3IiB5PSIxMTUuMDE1NiI+VmV0ZXJpbmFyeShkb2N0b3JzOiBEb2N0b3JbXSwgYXNzaXN0YW50czogQXNzaXN0YW50W10pPC90ZXh0PjxlbGxpcHNlIGN4PSIxOCIgY3k9IjEyNS43NTc4IiBmaWxsPSIjODRCRTg0IiByeD0iMyIgcnk9IjMiIHN0eWxlPSJzdHJva2U6IzAzODA0ODtzdHJva2Utd2lkdGg6MS4wOyIvPjx0ZXh0IGZpbGw9IiMwMDAwMDAiIGZvbnQtZmFtaWx5PSJzYW5zLXNlcmlmIiBmb250LXNpemU9IjE0IiBsZW5ndGhBZGp1c3Q9InNwYWNpbmciIHRleHRMZW5ndGg9Ijg2IiB4PSIyNyIgeT0iMTMwIj5WZXRlcmluYXJ5KCk8L3RleHQ+PGVsbGlwc2UgY3g9IjE4IiBjeT0iMTQwLjc0MjIiIGZpbGw9IiM4NEJFODQiIHJ4PSIzIiByeT0iMyIgc3R5bGU9InN0cm9rZTojMDM4MDQ4O3N0cm9rZS13aWR0aDoxLjA7Ii8+PHRleHQgZmlsbD0iIzAwMDAwMCIgZm9udC1mYW1pbHk9InNhbnMtc2VyaWYiIGZvbnQtc2l6ZT0iMTQiIGxlbmd0aEFkanVzdD0ic3BhY2luZyIgdGV4dExlbmd0aD0iMTU2IiB4PSIyNyIgeT0iMTQ0Ljk4NDQiPmdldERvY3RvcnMoKTogRG9jdG9yW108L3RleHQ+PGVsbGlwc2UgY3g9IjE4IiBjeT0iMTU1LjcyNjYiIGZpbGw9IiM4NEJFODQiIHJ4PSIzIiByeT0iMyIgc3R5bGU9InN0cm9rZTojMDM4MDQ4O3N0cm9rZS13aWR0aDoxLjA7Ii8+PHRleHQgZmlsbD0iIzAwMDAwMCIgZm9udC1mYW1pbHk9InNhbnMtc2VyaWYiIGZvbnQtc2l6ZT0iMTQiIGxlbmd0aEFkanVzdD0ic3BhY2luZyIgdGV4dExlbmd0aD0iMTk4IiB4PSIyNyIgeT0iMTU5Ljk2ODgiPmdldEFzc2lzdGFudHMoKTogQXNzaXN0YW50W108L3RleHQ+PGVsbGlwc2UgY3g9IjE4IiBjeT0iMTcwLjcxMDkiIGZpbGw9IiM4NEJFODQiIHJ4PSIzIiByeT0iMyIgc3R5bGU9InN0cm9rZTojMDM4MDQ4O3N0cm9rZS13aWR0aDoxLjA7Ii8+PHRleHQgZmlsbD0iIzAwMDAwMCIgZm9udC1mYW1pbHk9InNhbnMtc2VyaWYiIGZvbnQtc2l6ZT0iMTQiIGxlbmd0aEFkanVzdD0ic3BhY2luZyIgdGV4dExlbmd0aD0iMjIwIiB4PSIyNyIgeT0iMTc0Ljk1MzEiPmFkZENhc2UobmV3Q2FzZTogQ2FzZSk6IGJvb2xlYW48L3RleHQ+PHJlY3QgZmlsbD0iI0YyNEQ1QyIgaGVpZ2h0PSI2IiBzdHlsZT0ic3Ryb2tlOiNDODI5MzA7c3Ryb2tlLXdpZHRoOjEuMDsiIHdpZHRoPSI2IiB4PSIxNSIgeT0iMTgyLjY5NTMiLz48dGV4dCBmaWxsPSIjMDAwMDAwIiBmb250LWZhbWlseT0ic2Fucy1zZXJpZiIgZm9udC1zaXplPSIxNCIgbGVuZ3RoQWRqdXN0PSJzcGFjaW5nIiB0ZXh0TGVuZ3RoPSIzMzIiIHg9IjI3IiB5PSIxODkuOTM3NSI+aGF2ZVZldGVyaW5hcnlBdXRob3JpemUobmV3Q2FzZTogQ2FzZSk6IGJvb2xlYW48L3RleHQ+PGVsbGlwc2UgY3g9IjE4IiBjeT0iMjAwLjY3OTciIGZpbGw9IiM4NEJFODQiIHJ4PSIzIiByeT0iMyIgc3R5bGU9InN0cm9rZTojMDM4MDQ4O3N0cm9rZS13aWR0aDoxLjA7Ii8+PHRleHQgZmlsbD0iIzAwMDAwMCIgZm9udC1mYW1pbHk9InNhbnMtc2VyaWYiIGZvbnQtc2l6ZT0iMTQiIGxlbmd0aEFkanVzdD0ic3BhY2luZyIgdGV4dExlbmd0aD0iMTM1IiB4PSIyNyIgeT0iMjA0LjkyMTkiPmdldENhc2VMaXN0KCk6IExpc3Q8L3RleHQ+PGVsbGlwc2UgY3g9IjE4IiBjeT0iMjE1LjY2NDEiIGZpbGw9IiM4NEJFODQiIHJ4PSIzIiByeT0iMyIgc3R5bGU9InN0cm9rZTojMDM4MDQ4O3N0cm9rZS13aWR0aDoxLjA7Ii8+PHRleHQgZmlsbD0iIzAwMDAwMCIgZm9udC1mYW1pbHk9InNhbnMtc2VyaWYiIGZvbnQtc2l6ZT0iMTQiIGxlbmd0aEFkanVzdD0ic3BhY2luZyIgdGV4dExlbmd0aD0iMjg0IiB4PSIyNyIgeT0iMjE5LjkwNjMiPnJlbW92ZUNhc2UocGF0aWVudE5hbWU6IFN0cmluZyk6IGJvb2xlYW48L3RleHQ+PGVsbGlwc2UgY3g9IjE4IiBjeT0iMjMwLjY0ODQiIGZpbGw9IiM4NEJFODQiIHJ4PSIzIiByeT0iMyIgc3R5bGU9InN0cm9rZTojMDM4MDQ4O3N0cm9rZS13aWR0aDoxLjA7Ii8+PHRleHQgZmlsbD0iIzAwMDAwMCIgZm9udC1mYW1pbHk9InNhbnMtc2VyaWYiIGZvbnQtc2l6ZT0iMTQiIGxlbmd0aEFkanVzdD0ic3BhY2luZyIgdGV4dExlbmd0aD0iMjQwIiB4PSIyNyIgeT0iMjM0Ljg5MDYiPnByaW50TW9zdFVyZ2VudENhc2VzKGs6IGludCk6IHZvaWQ8L3RleHQ+PHJlY3QgZmlsbD0iI0YyNEQ1QyIgaGVpZ2h0PSI2IiBzdHlsZT0ic3Ryb2tlOiNDODI5MzA7c3Ryb2tlLXdpZHRoOjEuMDsiIHdpZHRoPSI2IiB4PSIxNSIgeT0iMjQyLjYzMjgiLz48dGV4dCBmaWxsPSIjMDAwMDAwIiBmb250LWZhbWlseT0ic2Fucy1zZXJpZiIgZm9udC1zaXplPSIxNCIgbGVuZ3RoQWRqdXN0PSJzcGFjaW5nIiB0ZXh0TGVuZ3RoPSIzNTUiIHg9IjI3IiB5PSIyNDkuODc1Ij5jYWxjdWxhdGVUcmVhdG1lbnRUaW1lKHRyZWF0bWVudFR5cGU6IFN0cmluZyk6IGludDwvdGV4dD48ZWxsaXBzZSBjeD0iMTgiIGN5PSIyNjAuNjE3MiIgZmlsbD0iIzg0QkU4NCIgcng9IjMiIHJ5PSIzIiBzdHlsZT0ic3Ryb2tlOiMwMzgwNDg7c3Ryb2tlLXdpZHRoOjEuMDsiLz48dGV4dCBmaWxsPSIjMDAwMDAwIiBmb250LWZhbWlseT0ic2Fucy1zZXJpZiIgZm9udC1zaXplPSIxNCIgbGVuZ3RoQWRqdXN0PSJzcGFjaW5nIiB0ZXh0TGVuZ3RoPSIxOTgiIHg9IjI3IiB5PSIyNjQuODU5NCI+ZXhlY3V0ZSgpOiBBcnJheUxpc3QmbHQ7U3RyaW5nJmd0OzwvdGV4dD48cmVjdCBmaWxsPSIjRjI0RDVDIiBoZWlnaHQ9IjYiIHN0eWxlPSJzdHJva2U6I0M4MjkzMDtzdHJva2Utd2lkdGg6MS4wOyIgd2lkdGg9IjYiIHg9IjE1IiB5PSIyNzIuNjAxNiIvPjx0ZXh0IGZpbGw9IiMwMDAwMDAiIGZvbnQtZmFtaWx5PSJzYW5zLXNlcmlmIiBmb250LXNpemU9IjE0IiBsZW5ndGhBZGp1c3Q9InNwYWNpbmciIHRleHRMZW5ndGg9IjM5NCIgeD0iMjciIHk9IjI3OS44NDM4Ij5pc0RvY3RvckF1dGhvcml6ZWQoZG9jdG9yczogRG9jdG9yLCBub2RlOiBOb2RlKTogYm9vbGVhbjwvdGV4dD48cmVjdCBmaWxsPSIjRjI0RDVDIiBoZWlnaHQ9IjYiIHN0eWxlPSJzdHJva2U6I0M4MjkzMDtzdHJva2Utd2lkdGg6MS4wOyIgd2lkdGg9IjYiIHg9IjE1IiB5PSIyODcuNTg1OSIvPjx0ZXh0IGZpbGw9IiMwMDAwMDAiIGZvbnQtZmFtaWx5PSJzYW5zLXNlcmlmIiBmb250LXNpemU9IjE0IiBsZW5ndGhBZGp1c3Q9InNwYWNpbmciIHRleHRMZW5ndGg9IjI1NCIgeD0iMjciIHk9IjI5NC44MjgxIj5jb25jbHVkZUNhc2UoZG9jdG9yOiBEb2N0b3IpOiBTdHJpbmc8L3RleHQ+PHJlY3QgZmlsbD0iI0YyNEQ1QyIgaGVpZ2h0PSI2IiBzdHlsZT0ic3Ryb2tlOiNDODI5MzA7c3Ryb2tlLXdpZHRoOjEuMDsiIHdpZHRoPSI2IiB4PSIxNSIgeT0iMzAyLjU3MDMiLz48dGV4dCBmaWxsPSIjMDAwMDAwIiBmb250LWZhbWlseT0ic2Fucy1zZXJpZiIgZm9udC1zaXplPSIxNCIgbGVuZ3RoQWRqdXN0PSJzcGFjaW5nIiB0ZXh0TGVuZ3RoPSI0OTMiIHg9IjI3IiB5PSIzMDkuODEyNSI+cmVnaXN0ZXJEb2N0b3JDYXNlKHRpbWU6IGludCwgY3VycmVudENhc2U6IE5vZGUsIGRvY3RvcjogRG9jdG9yKTogdm9pZDwvdGV4dD48cmVjdCBmaWxsPSIjRjI0RDVDIiBoZWlnaHQ9IjYiIHN0eWxlPSJzdHJva2U6I0M4MjkzMDtzdHJva2Utd2lkdGg6MS4wOyIgd2lkdGg9IjYiIHg9IjE1IiB5PSIzMTcuNTU0NyIvPjx0ZXh0IGZpbGw9IiMwMDAwMDAiIGZvbnQtZmFtaWx5PSJzYW5zLXNlcmlmIiBmb250LXNpemU9IjE0IiBsZW5ndGhBZGp1c3Q9InNwYWNpbmciIHRleHRMZW5ndGg9IjI0MCIgeD0iMjciIHk9IjMyNC43OTY5Ij5maW5kTmV4dENhc2UoZG9jdG9yOiBEb2N0b3IpOiBOb2RlPC90ZXh0PjwvZz48IS0tU1JDPVtWTDdESmlDbTNCeGxBTkJpakY4MnJKSGZXV2lJekNCV1dYMEFZVWFZc2NHYXBqWDBsM2tFaXRMUjFycEl2RkZ0T3hrZ2JJNjgxcTNtbmFnXzVURmZ6VkZYRVBqelpPSXU0RGVmVDN2S3VlZWxacS1DYWpHNGIxUWZDRF9WVHhOdDIxNGdTS0ZXWTgzOUtLUG52YlItUEpLVUlaRkcwNlBmQUNPZEZONmZydEZyakI2OWE1ZlZvVzI1WE9fcWhLR3dZVlZZTjBsSVNsREJrT1AzdzNwWXFkZHAtUC02V25FUTFhd25GN1oyRk5IazNIb3ZhY1owT1lxeGloWDNTY3k2OVlsMnlETzVsRlNEQ1BDZzU2LUw4OUlPUXNTcXp3VGFnczhoNEhPVTk3UjROOVdFMmtuVnN6TG4wZ2RQN0pRVzhXOWxuTmt2SkpyRUNzbDZsWVJhTlZPSnctNl9BZUxyY2huaEVXVEJLeXdnRGtleVFmUmpMVUR6Q3FwcXE1MG0tNW5aRWZncTRrZ3A1MmZ3bG5pem52SllwQW5WbkFrbmtlT0RfZndQckFGbDdtMDBdLS0+PC9nPjwvc3ZnPg==;strokeColor=#FF3333;" parent="1" vertex="1">
            <mxGeometry x="36.5" y="818" width="540" height="344" as="geometry" />
          </mxCell>
        </UserObject>
        <mxCell id="fNJLwbQvEekjFqsQkFxo-22" style="edgeStyle=orthogonalEdgeStyle;rounded=0;orthogonalLoop=1;jettySize=auto;html=1;entryX=0;entryY=0.5;entryDx=0;entryDy=0;endArrow=none;endFill=0;" parent="1" target="kbrCUC_pbYBXq86tmqO2-69" edge="1">
          <mxGeometry relative="1" as="geometry">
            <mxPoint x="-220" y="990" as="sourcePoint" />
          </mxGeometry>
        </mxCell>
        <mxCell id="uYADebYyoeD6eWLToY8Z-27" value="0..*" style="edgeLabel;html=1;align=center;verticalAlign=middle;resizable=0;points=[];fontSize=12;" parent="fNJLwbQvEekjFqsQkFxo-22" vertex="1" connectable="0">
          <mxGeometry x="-0.455" y="-1" relative="1" as="geometry">
            <mxPoint x="-52" y="-11" as="offset" />
          </mxGeometry>
        </mxCell>
        <mxCell id="uYADebYyoeD6eWLToY8Z-28" value="1" style="edgeLabel;html=1;align=center;verticalAlign=middle;resizable=0;points=[];fontSize=12;" parent="fNJLwbQvEekjFqsQkFxo-22" vertex="1" connectable="0">
          <mxGeometry x="-0.455" y="-1" relative="1" as="geometry">
            <mxPoint x="169" y="-11" as="offset" />
          </mxGeometry>
        </mxCell>
        <mxCell id="uYADebYyoeD6eWLToY8Z-29" value="operate" style="edgeLabel;html=1;align=center;verticalAlign=middle;resizable=0;points=[];fontSize=16;" parent="fNJLwbQvEekjFqsQkFxo-22" vertex="1" connectable="0">
          <mxGeometry x="0.1233" y="-2" relative="1" as="geometry">
            <mxPoint x="-18" y="-14" as="offset" />
          </mxGeometry>
        </mxCell>
        <mxCell id="uYADebYyoeD6eWLToY8Z-30" value="0..*" style="edgeLabel;html=1;align=center;verticalAlign=middle;resizable=0;points=[];fontSize=12;" parent="fNJLwbQvEekjFqsQkFxo-22" vertex="1" connectable="0">
          <mxGeometry x="-0.455" y="-1" relative="1" as="geometry">
            <mxPoint x="89" y="-263" as="offset" />
          </mxGeometry>
        </mxCell>
        <mxCell id="uYADebYyoeD6eWLToY8Z-31" value="1" style="edgeLabel;html=1;align=center;verticalAlign=middle;resizable=0;points=[];fontSize=12;" parent="fNJLwbQvEekjFqsQkFxo-22" vertex="1" connectable="0">
          <mxGeometry x="-0.455" y="-1" relative="1" as="geometry">
            <mxPoint x="169" y="-100" as="offset" />
          </mxGeometry>
        </mxCell>
        <UserObject label="" plantUmlData="{&quot;data&quot;:&quot;@startuml\n\nclass Doctor &lt;&lt;I_Doctor&gt;&gt;{\n//extends Person\n  + authorizedFor: AnimalKind[]\n  + operationTime: int\n  + startingTime: int\n  + finishedTime: int\n  + handleCase: Node\n\n  + Doctor(name: String, age: int, address: String)\n  + Doctor(name: String, age: int, address: String, authorizedFor: AnimalKind[])\n  + getAuthorizedFor(): AnimalKind[]\n  + addAuthorizedAnimal(animalKind: String): boolean\n  - isValidAnimalKind(animalKind: String): boolean\n  + getName(): String\n  + getAge(): int\n  + getAddress(): String\n  + toString(): String\n}\n\n@enduml\n&quot;,&quot;format&quot;:&quot;svg&quot;}" id="kbrCUC_pbYBXq86tmqO2-73">
          <mxCell style="shape=image;noLabel=1;verticalAlign=top;aspect=fixed;imageAspect=0;image=data:image/svg+xml,PD94bWwgdmVyc2lvbj0iMS4wIiBlbmNvZGluZz0idXMtYXNjaWkiIHN0YW5kYWxvbmU9Im5vIj8+PHN2ZyB4bWxucz0iaHR0cDovL3d3dy53My5vcmcvMjAwMC9zdmciIHhtbG5zOnhsaW5rPSJodHRwOi8vd3d3LnczLm9yZy8xOTk5L3hsaW5rIiBjb250ZW50U3R5bGVUeXBlPSJ0ZXh0L2NzcyIgaGVpZ2h0PSIyOTlweCIgcHJlc2VydmVBc3BlY3RSYXRpbz0ibm9uZSIgc3R5bGU9IndpZHRoOjU4M3B4O2hlaWdodDoyOTlweDtiYWNrZ3JvdW5kOiNGRkZGRkY7IiB2ZXJzaW9uPSIxLjEiIHZpZXdCb3g9IjAgMCA1ODMgMjk5IiB3aWR0aD0iNTgzcHgiIHpvb21BbmRQYW49Im1hZ25pZnkiPjxkZWZzLz48Zz48IS0tY2xhc3MgRG9jdG9yLS0+PGcgaWQ9ImVsZW1fRG9jdG9yIj48cmVjdCBjb2RlTGluZT0iMSIgZmlsbD0iI0YxRjFGMSIgaGVpZ2h0PSIyNzguNTkzOCIgaWQ9IkRvY3RvciIgcng9IjIuNSIgcnk9IjIuNSIgc3R5bGU9InN0cm9rZTojMTgxODE4O3N0cm9rZS13aWR0aDowLjU7IiB3aWR0aD0iNTYyIiB4PSI3IiB5PSI3Ii8+PGVsbGlwc2UgY3g9IjI1My43NSIgY3k9IjI1LjkxNDEiIGZpbGw9IiNBREQxQjIiIHJ4PSIxMSIgcnk9IjExIiBzdHlsZT0ic3Ryb2tlOiMxODE4MTg7c3Ryb2tlLXdpZHRoOjEuMDsiLz48cGF0aCBkPSJNMjUxLjM3NSwzMC4xNjQxIEwyNTEuMzc1LDMxLjkxNDEgTDI1Ni4zMTI1LDMxLjkxNDEgTDI1Ni4zMTI1LDMwLjE2NDEgTDI1MS4zNzUsMzAuMTY0MSBaIE0yNTIuMDYyNSwzMC44NTE2IFEyNTIuMDYyNSwzMC44NTE2IDI1Mi4wNjI1LDIxLjY2NDEgTDI1MC4zMTI1LDIxLjY2NDEgUTI1MC4zMTI1LDIxLjY2NDEgMjUwLjMxMjUsMzAuODUxNiBMMjUyLjA2MjUsMzAuODUxNiBaIE0yNTUuNjI1LDMwLjg1MTYgTDI1Ny4zNzUsMzAuODUxNiBRMjU3LjM3NSwzMC44NTE2IDI1Ny4zNzUsMjguMDM5MSBMMjU1LjYyNSwyOC4wMzkxIFEyNTUuNjI1LDI4LjAzOTEgMjU1LjYyNSwzMC44NTE2IFogTTI1NS42MjUsMjEuNjY0MSBRMjU1LjYyNSwyMS42NjQxIDI1NS42MjUsMjQuNDc2NiBMMjU3LjM3NSwyNC40NzY2IFEyNTcuMzc1LDI0LjQ3NjYgMjU3LjM3NSwyMS42NjQxIEwyNTUuNjI1LDIxLjY2NDEgWiBNMjUxLjM3NSwyMi4zNTE2IEwyNTYuMzEyNSwyMi4zNTE2IEwyNTYuMzEyNSwyMC42MDE2IEwyNTEuMzc1LDIwLjYwMTYgTDI1MS4zNzUsMjIuMzUxNiBaICIgZmlsbD0iIzAwMDAwMCIvPjx0ZXh0IGZpbGw9IiMwMDAwMDAiIGZvbnQtZmFtaWx5PSJzYW5zLXNlcmlmIiBmb250LXNpemU9IjEyIiBmb250LXN0eWxlPSJpdGFsaWMiIGxlbmd0aEFkanVzdD0ic3BhY2luZyIgdGV4dExlbmd0aD0iNjQiIHg9IjI3Mi4yNSIgeT0iMjMuMzQzOCI+JiMxNzE7SV9Eb2N0b3ImIzE4Nzs8L3RleHQ+PHRleHQgZmlsbD0iIzAwMDAwMCIgZm9udC1mYW1pbHk9InNhbnMtc2VyaWYiIGZvbnQtc2l6ZT0iMTQiIGxlbmd0aEFkanVzdD0ic3BhY2luZyIgdGV4dExlbmd0aD0iNDIiIHg9IjI4My4yNSIgeT0iMzguMDc4MSI+RG9jdG9yPC90ZXh0PjxsaW5lIHN0eWxlPSJzdHJva2U6IzE4MTgxODtzdHJva2Utd2lkdGg6MC41OyIgeDE9IjgiIHgyPSI1NjgiIHkxPSI0NC44MjgxIiB5Mj0iNDQuODI4MSIvPjx0ZXh0IGZpbGw9IiMwMDAwMDAiIGZvbnQtZmFtaWx5PSJzYW5zLXNlcmlmIiBmb250LXNpemU9IjE0IiBsZW5ndGhBZGp1c3Q9InNwYWNpbmciIHRleHRMZW5ndGg9IjExMiIgeD0iMjciIHk9IjYyLjA2MjUiPi8vZXh0ZW5kcyBQZXJzb248L3RleHQ+PGVsbGlwc2UgY3g9IjE4IiBjeT0iNzIuODA0NyIgZmlsbD0ibm9uZSIgcng9IjMiIHJ5PSIzIiBzdHlsZT0ic3Ryb2tlOiMwMzgwNDg7c3Ryb2tlLXdpZHRoOjEuMDsiLz48dGV4dCBmaWxsPSIjMDAwMDAwIiBmb250LWZhbWlseT0ic2Fucy1zZXJpZiIgZm9udC1zaXplPSIxNCIgbGVuZ3RoQWRqdXN0PSJzcGFjaW5nIiB0ZXh0TGVuZ3RoPSIxOTAiIHg9IjI3IiB5PSI3Ny4wNDY5Ij5hdXRob3JpemVkRm9yOiBBbmltYWxLaW5kW108L3RleHQ+PGVsbGlwc2UgY3g9IjE4IiBjeT0iODcuNzg5MSIgZmlsbD0ibm9uZSIgcng9IjMiIHJ5PSIzIiBzdHlsZT0ic3Ryb2tlOiMwMzgwNDg7c3Ryb2tlLXdpZHRoOjEuMDsiLz48dGV4dCBmaWxsPSIjMDAwMDAwIiBmb250LWZhbWlseT0ic2Fucy1zZXJpZiIgZm9udC1zaXplPSIxNCIgbGVuZ3RoQWRqdXN0PSJzcGFjaW5nIiB0ZXh0TGVuZ3RoPSIxMjciIHg9IjI3IiB5PSI5Mi4wMzEzIj5vcGVyYXRpb25UaW1lOiBpbnQ8L3RleHQ+PGVsbGlwc2UgY3g9IjE4IiBjeT0iMTAyLjc3MzQiIGZpbGw9Im5vbmUiIHJ4PSIzIiByeT0iMyIgc3R5bGU9InN0cm9rZTojMDM4MDQ4O3N0cm9rZS13aWR0aDoxLjA7Ii8+PHRleHQgZmlsbD0iIzAwMDAwMCIgZm9udC1mYW1pbHk9InNhbnMtc2VyaWYiIGZvbnQtc2l6ZT0iMTQiIGxlbmd0aEFkanVzdD0ic3BhY2luZyIgdGV4dExlbmd0aD0iMTIwIiB4PSIyNyIgeT0iMTA3LjAxNTYiPnN0YXJ0aW5nVGltZTogaW50PC90ZXh0PjxlbGxpcHNlIGN4PSIxOCIgY3k9IjExNy43NTc4IiBmaWxsPSJub25lIiByeD0iMyIgcnk9IjMiIHN0eWxlPSJzdHJva2U6IzAzODA0ODtzdHJva2Utd2lkdGg6MS4wOyIvPjx0ZXh0IGZpbGw9IiMwMDAwMDAiIGZvbnQtZmFtaWx5PSJzYW5zLXNlcmlmIiBmb250LXNpemU9IjE0IiBsZW5ndGhBZGp1c3Q9InNwYWNpbmciIHRleHRMZW5ndGg9IjEyMCIgeD0iMjciIHk9IjEyMiI+ZmluaXNoZWRUaW1lOiBpbnQ8L3RleHQ+PGVsbGlwc2UgY3g9IjE4IiBjeT0iMTMyLjc0MjIiIGZpbGw9Im5vbmUiIHJ4PSIzIiByeT0iMyIgc3R5bGU9InN0cm9rZTojMDM4MDQ4O3N0cm9rZS13aWR0aDoxLjA7Ii8+PHRleHQgZmlsbD0iIzAwMDAwMCIgZm9udC1mYW1pbHk9InNhbnMtc2VyaWYiIGZvbnQtc2l6ZT0iMTQiIGxlbmd0aEFkanVzdD0ic3BhY2luZyIgdGV4dExlbmd0aD0iMTEyIiB4PSIyNyIgeT0iMTM2Ljk4NDQiPmhhbmRsZUNhc2U6IE5vZGU8L3RleHQ+PGxpbmUgc3R5bGU9InN0cm9rZTojMTgxODE4O3N0cm9rZS13aWR0aDowLjU7IiB4MT0iOCIgeDI9IjU2OCIgeTE9IjE0Mi43MzQ0IiB5Mj0iMTQyLjczNDQiLz48ZWxsaXBzZSBjeD0iMTgiIGN5PSIxNTUuNzI2NiIgZmlsbD0iIzg0QkU4NCIgcng9IjMiIHJ5PSIzIiBzdHlsZT0ic3Ryb2tlOiMwMzgwNDg7c3Ryb2tlLXdpZHRoOjEuMDsiLz48dGV4dCBmaWxsPSIjMDAwMDAwIiBmb250LWZhbWlseT0ic2Fucy1zZXJpZiIgZm9udC1zaXplPSIxNCIgbGVuZ3RoQWRqdXN0PSJzcGFjaW5nIiB0ZXh0TGVuZ3RoPSIzMzIiIHg9IjI3IiB5PSIxNTkuOTY4OCI+RG9jdG9yKG5hbWU6IFN0cmluZywgYWdlOiBpbnQsIGFkZHJlc3M6IFN0cmluZyk8L3RleHQ+PGVsbGlwc2UgY3g9IjE4IiBjeT0iMTcwLjcxMDkiIGZpbGw9IiM4NEJFODQiIHJ4PSIzIiByeT0iMyIgc3R5bGU9InN0cm9rZTojMDM4MDQ4O3N0cm9rZS13aWR0aDoxLjA7Ii8+PHRleHQgZmlsbD0iIzAwMDAwMCIgZm9udC1mYW1pbHk9InNhbnMtc2VyaWYiIGZvbnQtc2l6ZT0iMTQiIGxlbmd0aEFkanVzdD0ic3BhY2luZyIgdGV4dExlbmd0aD0iNTM2IiB4PSIyNyIgeT0iMTc0Ljk1MzEiPkRvY3RvcihuYW1lOiBTdHJpbmcsIGFnZTogaW50LCBhZGRyZXNzOiBTdHJpbmcsIGF1dGhvcml6ZWRGb3I6IEFuaW1hbEtpbmRbXSk8L3RleHQ+PGVsbGlwc2UgY3g9IjE4IiBjeT0iMTg1LjY5NTMiIGZpbGw9IiM4NEJFODQiIHJ4PSIzIiByeT0iMyIgc3R5bGU9InN0cm9rZTojMDM4MDQ4O3N0cm9rZS13aWR0aDoxLjA7Ii8+PHRleHQgZmlsbD0iIzAwMDAwMCIgZm9udC1mYW1pbHk9InNhbnMtc2VyaWYiIGZvbnQtc2l6ZT0iMTQiIGxlbmd0aEFkanVzdD0ic3BhY2luZyIgdGV4dExlbmd0aD0iMjI3IiB4PSIyNyIgeT0iMTg5LjkzNzUiPmdldEF1dGhvcml6ZWRGb3IoKTogQW5pbWFsS2luZFtdPC90ZXh0PjxlbGxpcHNlIGN4PSIxOCIgY3k9IjIwMC42Nzk3IiBmaWxsPSIjODRCRTg0IiByeD0iMyIgcnk9IjMiIHN0eWxlPSJzdHJva2U6IzAzODA0ODtzdHJva2Utd2lkdGg6MS4wOyIvPjx0ZXh0IGZpbGw9IiMwMDAwMDAiIGZvbnQtZmFtaWx5PSJzYW5zLXNlcmlmIiBmb250LXNpemU9IjE0IiBsZW5ndGhBZGp1c3Q9InNwYWNpbmciIHRleHRMZW5ndGg9IjM0MCIgeD0iMjciIHk9IjIwNC45MjE5Ij5hZGRBdXRob3JpemVkQW5pbWFsKGFuaW1hbEtpbmQ6IFN0cmluZyk6IGJvb2xlYW48L3RleHQ+PHJlY3QgZmlsbD0iI0YyNEQ1QyIgaGVpZ2h0PSI2IiBzdHlsZT0ic3Ryb2tlOiNDODI5MzA7c3Ryb2tlLXdpZHRoOjEuMDsiIHdpZHRoPSI2IiB4PSIxNSIgeT0iMjEyLjY2NDEiLz48dGV4dCBmaWxsPSIjMDAwMDAwIiBmb250LWZhbWlseT0ic2Fucy1zZXJpZiIgZm9udC1zaXplPSIxNCIgbGVuZ3RoQWRqdXN0PSJzcGFjaW5nIiB0ZXh0TGVuZ3RoPSIzMjYiIHg9IjI3IiB5PSIyMTkuOTA2MyI+aXNWYWxpZEFuaW1hbEtpbmQoYW5pbWFsS2luZDogU3RyaW5nKTogYm9vbGVhbjwvdGV4dD48ZWxsaXBzZSBjeD0iMTgiIGN5PSIyMzAuNjQ4NCIgZmlsbD0iIzg0QkU4NCIgcng9IjMiIHJ5PSIzIiBzdHlsZT0ic3Ryb2tlOiMwMzgwNDg7c3Ryb2tlLXdpZHRoOjEuMDsiLz48dGV4dCBmaWxsPSIjMDAwMDAwIiBmb250LWZhbWlseT0ic2Fucy1zZXJpZiIgZm9udC1zaXplPSIxNCIgbGVuZ3RoQWRqdXN0PSJzcGFjaW5nIiB0ZXh0TGVuZ3RoPSIxMjIiIHg9IjI3IiB5PSIyMzQuODkwNiI+Z2V0TmFtZSgpOiBTdHJpbmc8L3RleHQ+PGVsbGlwc2UgY3g9IjE4IiBjeT0iMjQ1LjYzMjgiIGZpbGw9IiM4NEJFODQiIHJ4PSIzIiByeT0iMyIgc3R5bGU9InN0cm9rZTojMDM4MDQ4O3N0cm9rZS13aWR0aDoxLjA7Ii8+PHRleHQgZmlsbD0iIzAwMDAwMCIgZm9udC1mYW1pbHk9InNhbnMtc2VyaWYiIGZvbnQtc2l6ZT0iMTQiIGxlbmd0aEFkanVzdD0ic3BhY2luZyIgdGV4dExlbmd0aD0iOTMiIHg9IjI3IiB5PSIyNDkuODc1Ij5nZXRBZ2UoKTogaW50PC90ZXh0PjxlbGxpcHNlIGN4PSIxOCIgY3k9IjI2MC42MTcyIiBmaWxsPSIjODRCRTg0IiByeD0iMyIgcnk9IjMiIHN0eWxlPSJzdHJva2U6IzAzODA0ODtzdHJva2Utd2lkdGg6MS4wOyIvPjx0ZXh0IGZpbGw9IiMwMDAwMDAiIGZvbnQtZmFtaWx5PSJzYW5zLXNlcmlmIiBmb250LXNpemU9IjE0IiBsZW5ndGhBZGp1c3Q9InNwYWNpbmciIHRleHRMZW5ndGg9IjE0MiIgeD0iMjciIHk9IjI2NC44NTk0Ij5nZXRBZGRyZXNzKCk6IFN0cmluZzwvdGV4dD48ZWxsaXBzZSBjeD0iMTgiIGN5PSIyNzUuNjAxNiIgZmlsbD0iIzg0QkU4NCIgcng9IjMiIHJ5PSIzIiBzdHlsZT0ic3Ryb2tlOiMwMzgwNDg7c3Ryb2tlLXdpZHRoOjEuMDsiLz48dGV4dCBmaWxsPSIjMDAwMDAwIiBmb250LWZhbWlseT0ic2Fucy1zZXJpZiIgZm9udC1zaXplPSIxNCIgbGVuZ3RoQWRqdXN0PSJzcGFjaW5nIiB0ZXh0TGVuZ3RoPSIxMjgiIHg9IjI3IiB5PSIyNzkuODQzOCI+dG9TdHJpbmcoKTogU3RyaW5nPC90ZXh0PjwvZz48IS0tU1JDPVtkUDExSW1EMTM4Tmwtb2pvdDZBYnp3S0tZWUE4SzhJQTVuNjlkUldSYzJPb0lLNEtfeGtwRXRKUllZWHVjX2RVby1DYmN1WGNTQWFScm1KcC1WTEpVSXVNN3pMaUhjekU0V25rQVBiQTFOMDZrRkRFNHh6SmtEQkttNTl1WV82NjlKbXkzaGctS2E5ZGJKbFVLV0NpRmMxcEpDeElkajhONWhRRW1ZZGpLNEFhMnhKQ0xYZ2U2Y1pmTEdsc3JoTWQ3M081UkNqU1ZlTUdvNm1sSlZ1bkNfcmprSEJPYVktRkZWTmFYbkZhczhFZmczTUVmaDVYMHktZ2FSMl93cGNtdE1GYVMwWnhRc0dlaXlnUnpIc0FGYlBpMXhZX1BxX0Fmai1paGtMcFgzLV8wMDAwXS0tPjwvZz48L3N2Zz4=;" parent="1" vertex="1">
            <mxGeometry x="-798.5" y="821" width="583" height="299" as="geometry" />
          </mxCell>
        </UserObject>
        <mxCell id="fNJLwbQvEekjFqsQkFxo-28" style="edgeStyle=orthogonalEdgeStyle;rounded=0;orthogonalLoop=1;jettySize=auto;html=1;exitX=0;exitY=0.5;exitDx=0;exitDy=0;endArrow=none;endFill=0;startArrow=block;startFill=0;" parent="1" source="kbrCUC_pbYBXq86tmqO2-51" edge="1">
          <mxGeometry relative="1" as="geometry">
            <mxPoint x="-550" y="819" as="targetPoint" />
            <Array as="points">
              <mxPoint x="-550" y="553" />
            </Array>
          </mxGeometry>
        </mxCell>
        <mxCell id="uYADebYyoeD6eWLToY8Z-25" value="identify" style="edgeLabel;html=1;align=center;verticalAlign=middle;resizable=0;points=[];fontSize=16;" parent="fNJLwbQvEekjFqsQkFxo-28" vertex="1" connectable="0">
          <mxGeometry x="0.2686" y="1" relative="1" as="geometry">
            <mxPoint as="offset" />
          </mxGeometry>
        </mxCell>
        <mxCell id="fNJLwbQvEekjFqsQkFxo-31" value="&lt;p style=&quot;text-align: left; text-indent: 0in; line-height: 14.4px; margin-top: 3.75pt; margin-bottom: 0pt; margin-left: 0.38in; direction: ltr; unicode-bidi: embed; word-break: normal;&quot;&gt;&lt;span style=&quot;font-family: Verdana; font-size: 14px; text-indent: 0in;&quot;&gt;Manages and provides a general person informations for ensuring a unique identifier for each person. This class will be inherited to Doctor&amp;nbsp;and&amp;nbsp;Assistant classes.&lt;/span&gt;&lt;br&gt;&lt;/p&gt;" style="text;html=1;strokeColor=none;fillColor=none;align=center;verticalAlign=middle;whiteSpace=wrap;rounded=0;fontColor=#666666;spacing=2;" parent="1" vertex="1">
          <mxGeometry x="-491.25" y="388" width="408.25" height="74" as="geometry" />
        </mxCell>
        <mxCell id="fNJLwbQvEekjFqsQkFxo-33" value="&lt;p style=&quot;text-indent: 0in; line-height: 14.4px; margin-top: 3.75pt; margin-bottom: 0pt; margin-left: 0.38in; text-align: left; direction: ltr; unicode-bidi: embed; word-break: normal;&quot;&gt;&lt;font style=&quot;font-size: 14px;&quot; face=&quot;Verdana&quot;&gt;Manages and provides general information about an assistant, leveraging its inheritance from the Person class.&lt;/font&gt;&lt;/p&gt;" style="text;html=1;strokeColor=none;fillColor=none;align=right;verticalAlign=middle;whiteSpace=wrap;rounded=0;fontColor=#666666;" parent="1" vertex="1">
          <mxGeometry x="-505.25" y="778" width="459.5" height="40" as="geometry" />
        </mxCell>
        <mxCell id="fNJLwbQvEekjFqsQkFxo-34" value="&lt;p style=&quot;text-align: left; text-indent: 0in; line-height: 14.4px; margin-top: 3.75pt; margin-bottom: 0pt; margin-left: 0.38in; direction: ltr; unicode-bidi: embed; word-break: normal;&quot;&gt;&lt;font style=&quot;font-size: 14px;&quot; face=&quot;Verdana&quot;&gt;Enumerates&amp;nbsp;&lt;span style=&quot;&quot;&gt;only 5 different&amp;nbsp;&lt;/span&gt;&lt;span style=&quot;&quot;&gt;kinds of&amp;nbsp;&lt;/span&gt;&lt;span style=&quot;&quot;&gt;animal&amp;nbsp;&lt;/span&gt;&lt;span style=&quot;&quot;&gt;in&amp;nbsp;&lt;/span&gt;&lt;span style=&quot;&quot;&gt;Veterinary&lt;/span&gt;&lt;/font&gt;&lt;span style=&quot;font-family: -webkit-standard; font-size: medium; text-align: start;&quot;&gt;&lt;/span&gt;&lt;br&gt;&lt;/p&gt;" style="text;html=1;strokeColor=none;fillColor=none;align=right;verticalAlign=middle;whiteSpace=wrap;rounded=0;fontColor=#666666;" parent="1" vertex="1">
          <mxGeometry x="-792" y="402" width="168.5" height="60" as="geometry" />
        </mxCell>
        <mxCell id="fNJLwbQvEekjFqsQkFxo-35" value="&lt;p style=&quot;text-indent: 0in; line-height: 14.4px; margin-top: 3.75pt; margin-bottom: 0pt; margin-left: 0.38in; direction: ltr; unicode-bidi: embed; word-break: normal;&quot;&gt;&lt;font style=&quot;font-size: 14px;&quot; face=&quot;Verdana&quot;&gt;Enumerates&amp;nbsp;&lt;span style=&quot;&quot;&gt;only 4 different&amp;nbsp;&lt;/span&gt;&lt;span style=&quot;&quot;&gt;treatment types&amp;nbsp;&lt;/span&gt;&lt;span style=&quot;&quot;&gt;in&amp;nbsp;&lt;/span&gt;&lt;span style=&quot;&quot;&gt;Veterinary&lt;/span&gt;&lt;/font&gt;&lt;/p&gt;" style="text;html=1;strokeColor=none;fillColor=none;align=left;verticalAlign=middle;whiteSpace=wrap;rounded=0;fontColor=#666666;" parent="1" vertex="1">
          <mxGeometry x="-67" y="628" width="218" height="70" as="geometry" />
        </mxCell>
        <mxCell id="fNJLwbQvEekjFqsQkFxo-36" value="&lt;p style=&quot;text-indent: 0in; line-height: 14.4px; margin-top: 3.75pt; margin-bottom: 0pt; margin-left: 0.38in; text-align: left; direction: ltr; unicode-bidi: embed; word-break: normal;&quot;&gt;&lt;font style=&quot;font-size: 14px;&quot; face=&quot;Verdana&quot;&gt;Manages and provides information about individual animals, along with setting animal kinds and the adding of pre-existing conditions to avoid duplication.&lt;/font&gt;&lt;/p&gt;" style="text;html=1;strokeColor=none;fillColor=none;align=right;verticalAlign=middle;whiteSpace=wrap;rounded=0;fontColor=#666666;" parent="1" vertex="1">
          <mxGeometry x="-827" y="2" width="723" height="50" as="geometry" />
        </mxCell>
        <mxCell id="fNJLwbQvEekjFqsQkFxo-37" value="&lt;p style=&quot;text-indent: 0in; line-height: 14.4px; margin-top: 3.75pt; margin-bottom: 0pt; margin-left: 0.38in; text-align: left; direction: ltr; unicode-bidi: embed; word-break: normal;&quot;&gt;&lt;font style=&quot;font-size: 14px;&quot; face=&quot;Verdana&quot;&gt;Manages and provides a general information about a doctor by leveraging its inheritance from the Person class, along with specific authorizations for treating animal kinds. It includes attributes related to ongoing treatments, such as parameters for operation time and case details.&lt;/font&gt;&lt;br&gt;&lt;/p&gt;" style="text;html=1;strokeColor=none;fillColor=none;align=right;verticalAlign=middle;whiteSpace=wrap;rounded=0;fontColor=#666666;" parent="1" vertex="1">
          <mxGeometry x="-827" y="1101" width="737" height="68" as="geometry" />
        </mxCell>
        <mxCell id="fNJLwbQvEekjFqsQkFxo-38" value="&lt;p style=&quot;text-indent: 0in; line-height: 14.4px; margin-top: 3.75pt; margin-bottom: 0pt; margin-left: 0.38in; direction: ltr; unicode-bidi: embed; word-break: normal;&quot;&gt;&lt;font style=&quot;font-size: 14px;&quot; face=&quot;Verdana&quot;&gt;Represents a medical case with an owner, animal, and treatment&lt;/font&gt;&lt;span style=&quot;font-family: -webkit-standard; font-size: medium; text-align: start;&quot;&gt;&lt;/span&gt;&lt;br&gt;&lt;/p&gt;" style="text;html=1;strokeColor=none;fillColor=none;align=right;verticalAlign=middle;whiteSpace=wrap;rounded=0;fontColor=#666666;" parent="1" vertex="1">
          <mxGeometry x="10" y="4" width="510" height="22" as="geometry" />
        </mxCell>
        <mxCell id="fNJLwbQvEekjFqsQkFxo-39" value="&lt;p style=&quot;text-align: left; text-indent: 0in; line-height: 14.4px; margin-top: 3.75pt; margin-bottom: 0pt; margin-left: 0.38in; direction: ltr; unicode-bidi: embed; word-break: normal;&quot;&gt;&lt;font style=&quot;font-size: 14px;&quot; face=&quot;Verdana&quot;&gt;Represents a node in a doubly linked list structure, storing a Case&lt;/font&gt;&lt;span style=&quot;font-family: -webkit-standard; font-size: medium; text-align: start;&quot;&gt;&lt;/span&gt;&lt;br&gt;&lt;/p&gt;" style="text;html=1;strokeColor=none;fillColor=none;align=right;verticalAlign=middle;whiteSpace=wrap;rounded=0;fontColor=#666666;" parent="1" vertex="1">
          <mxGeometry x="370" y="231" width="150" height="108" as="geometry" />
        </mxCell>
        <mxCell id="fNJLwbQvEekjFqsQkFxo-40" value="&lt;p style=&quot;text-indent: 0in; line-height: 14.4px; margin-top: 3.75pt; margin-bottom: 0pt; margin-left: 0.38in; text-align: left; direction: ltr; unicode-bidi: embed; word-break: normal;&quot;&gt;&lt;font style=&quot;font-size: 14px;&quot; face=&quot;Verdana&quot;&gt;Manages a doubly linked list with methods for appending, inserting, removing nodes, swapping node positions, sorting based on emergency cases, and finding the index of a node by owner name. It includes functions to get the head and tail nodes and retrieve a node at a specific index. The&amp;nbsp;&lt;span style=&quot;&quot;&gt;insertHead&amp;nbsp;&lt;/span&gt;&lt;span style=&quot;&quot;&gt;method adds a node to the beginning, considering whether the list is empty or not.&lt;/span&gt;&lt;/font&gt;&lt;/p&gt;" style="text;html=1;strokeColor=none;fillColor=none;align=right;verticalAlign=middle;whiteSpace=wrap;rounded=0;fontColor=#666666;" parent="1" vertex="1">
          <mxGeometry x="543" y="527.5" width="260" height="260" as="geometry" />
        </mxCell>
        <mxCell id="fNJLwbQvEekjFqsQkFxo-41" value="&lt;p style=&quot;caret-color: rgb(0, 0, 0); text-indent: 0in; line-height: 14.4px; margin-top: 3.75pt; margin-bottom: 0pt; margin-left: 0.38in; text-align: left; direction: ltr; unicode-bidi: embed; word-break: normal;&quot;&gt;&lt;font style=&quot;font-size: 14px;&quot; face=&quot;Verdana&quot;&gt;The class manages a veterinary system with doctors, assistants, and a patient queue. It provides access to the lists of doctors, assistants, and the patient queue. The class includes methods to add and remove cases, print urgent cases, and execute treatments. The execute method simulates the treatment process, considering factors such as doctor availability, authority, and treatment times. The calculation of treatment time depends on the numbers of doctors and assistants. Internal methods handle case authorization, doctor authorization, finding the next case for a doctor, and concluding each case.&lt;/font&gt;&lt;/p&gt;" style="text;html=1;strokeColor=none;fillColor=none;align=right;verticalAlign=middle;whiteSpace=wrap;rounded=0;fontColor=#666666;" parent="1" vertex="1">
          <mxGeometry x="543" y="805" width="280" height="360" as="geometry" />
        </mxCell>
        <UserObject label="" plantUmlData="{&quot;data&quot;:&quot;@startuml\n\nenum Enum_name\n{\n  + value\n\n  ~ package()\n  + public()\n  \n  \n}\n\n@enduml\n&quot;,&quot;format&quot;:&quot;svg&quot;}" id="fNJLwbQvEekjFqsQkFxo-42">
          <mxCell style="shape=image;noLabel=1;verticalAlign=top;aspect=fixed;imageAspect=0;image=data:image/svg+xml,PD94bWwgdmVyc2lvbj0iMS4wIiBlbmNvZGluZz0idXMtYXNjaWkiIHN0YW5kYWxvbmU9Im5vIj8+PHN2ZyB4bWxucz0iaHR0cDovL3d3dy53My5vcmcvMjAwMC9zdmciIHhtbG5zOnhsaW5rPSJodHRwOi8vd3d3LnczLm9yZy8xOTk5L3hsaW5rIiBjb250ZW50U3R5bGVUeXBlPSJ0ZXh0L2NzcyIgaGVpZ2h0PSIxMTNweCIgcHJlc2VydmVBc3BlY3RSYXRpbz0ibm9uZSIgc3R5bGU9IndpZHRoOjExOHB4O2hlaWdodDoxMTNweDtiYWNrZ3JvdW5kOiNGRkZGRkY7IiB2ZXJzaW9uPSIxLjEiIHZpZXdCb3g9IjAgMCAxMTggMTEzIiB3aWR0aD0iMTE4cHgiIHpvb21BbmRQYW49Im1hZ25pZnkiPjxkZWZzLz48Zz48IS0tY2xhc3MgRW51bV9uYW1lLS0+PGcgaWQ9ImVsZW1fRW51bV9uYW1lIj48cmVjdCBjb2RlTGluZT0iMSIgZmlsbD0iI0YxRjFGMSIgaGVpZ2h0PSI5Mi45NTMxIiBpZD0iRW51bV9uYW1lIiByeD0iMi41IiByeT0iMi41IiBzdHlsZT0ic3Ryb2tlOiMxODE4MTg7c3Ryb2tlLXdpZHRoOjAuNTsiIHdpZHRoPSI5NyIgeD0iNyIgeT0iNyIvPjxlbGxpcHNlIGN4PSIyMiIgY3k9IjIzIiBmaWxsPSIjRUI5MzdGIiByeD0iMTEiIHJ5PSIxMSIgc3R5bGU9InN0cm9rZTojMTgxODE4O3N0cm9rZS13aWR0aDoxLjA7Ii8+PHBhdGggZD0iTTI1LjYyNSwyOSBMMjUuNjI1LDI3LjI1IEwyMC4zMTI1LDI3LjI1IFEyMC4zMTI1LDI3LjI1IDIwLjMxMjUsMjMuNjg3NSBMMjQuNTYyNSwyMy42ODc1IEwyNC41NjI1LDIxLjkzNzUgTDIwLjMxMjUsMjEuOTM3NSBMMjAuMzEyNSwxOS40Mzc1IEwyNS42MjUsMTkuNDM3NSBMMjUuNjI1LDE3LjY4NzUgTDE4LjU2MjUsMTcuNjg3NSBRMTguNTYyNSwxNy42ODc1IDE4LjU2MjUsMjkgTDI1LjYyNSwyOSBaICIgZmlsbD0iIzAwMDAwMCIvPjx0ZXh0IGZpbGw9IiMwMDAwMDAiIGZvbnQtZmFtaWx5PSJzYW5zLXNlcmlmIiBmb250LXNpemU9IjE0IiBsZW5ndGhBZGp1c3Q9InNwYWNpbmciIHRleHRMZW5ndGg9IjY1IiB4PSIzNiIgeT0iMjguNzQyMiI+RW51bV9uYW1lPC90ZXh0PjxsaW5lIHN0eWxlPSJzdHJva2U6IzE4MTgxODtzdHJva2Utd2lkdGg6MC41OyIgeDE9IjgiIHgyPSIxMDMiIHkxPSIzOSIgeTI9IjM5Ii8+PGVsbGlwc2UgY3g9IjE4IiBjeT0iNTEuOTkyMiIgZmlsbD0ibm9uZSIgcng9IjMiIHJ5PSIzIiBzdHlsZT0ic3Ryb2tlOiMwMzgwNDg7c3Ryb2tlLXdpZHRoOjEuMDsiLz48dGV4dCBmaWxsPSIjMDAwMDAwIiBmb250LWZhbWlseT0ic2Fucy1zZXJpZiIgZm9udC1zaXplPSIxNCIgbGVuZ3RoQWRqdXN0PSJzcGFjaW5nIiB0ZXh0TGVuZ3RoPSIzNSIgeD0iMjciIHk9IjU2LjIzNDQiPnZhbHVlPC90ZXh0PjxsaW5lIHN0eWxlPSJzdHJva2U6IzE4MTgxODtzdHJva2Utd2lkdGg6MC41OyIgeDE9IjgiIHgyPSIxMDMiIHkxPSI2MS45ODQ0IiB5Mj0iNjEuOTg0NCIvPjxwb2x5Z29uIGZpbGw9IiM0MTc3QUYiIHBvaW50cz0iMTgsNzAuOTc2NiwxNCw3Ni45NzY2LDIyLDc2Ljk3NjYiIHN0eWxlPSJzdHJva2U6IzE5NjNBMDtzdHJva2Utd2lkdGg6MS4wOyIvPjx0ZXh0IGZpbGw9IiMwMDAwMDAiIGZvbnQtZmFtaWx5PSJzYW5zLXNlcmlmIiBmb250LXNpemU9IjE0IiBsZW5ndGhBZGp1c3Q9InNwYWNpbmciIHRleHRMZW5ndGg9IjY1IiB4PSIyNyIgeT0iNzkuMjE4OCI+cGFja2FnZSgpPC90ZXh0PjxlbGxpcHNlIGN4PSIxOCIgY3k9Ijg5Ljk2MDkiIGZpbGw9IiM4NEJFODQiIHJ4PSIzIiByeT0iMyIgc3R5bGU9InN0cm9rZTojMDM4MDQ4O3N0cm9rZS13aWR0aDoxLjA7Ii8+PHRleHQgZmlsbD0iIzAwMDAwMCIgZm9udC1mYW1pbHk9InNhbnMtc2VyaWYiIGZvbnQtc2l6ZT0iMTQiIGxlbmd0aEFkanVzdD0ic3BhY2luZyIgdGV4dExlbmd0aD0iNTgiIHg9IjI3IiB5PSI5NC4yMDMxIj5wdWJsaWMoKTwvdGV4dD48L2c+PCEtLVNSQz1bSXlxaHBMTG0xSEJuVU9jdmdMcExOMGVBc1dmYllKY2JnTG4wUGZyMkdNOW9UYzl3Z2VPY01BQVdEMmFkQ25kQzBRNVEwMDAwXS0tPjwvZz48L3N2Zz4=;strokeColor=#FF3333;" parent="1" vertex="1">
            <mxGeometry x="560" y="299" width="118" height="113" as="geometry" />
          </mxCell>
        </UserObject>
        <UserObject label="" plantUmlData="{&quot;data&quot;:&quot;@startuml\n\nclass Class_name &lt;&lt;Interface&gt;&gt;\n{\n  + public Attribute\n  - Attributes\n\n  + public()\n  - private()\n  \n}\n\n@enduml\n&quot;,&quot;format&quot;:&quot;svg&quot;}" id="fNJLwbQvEekjFqsQkFxo-45">
          <mxCell style="shape=image;noLabel=1;verticalAlign=top;aspect=fixed;imageAspect=0;image=data:image/svg+xml,PD94bWwgdmVyc2lvbj0iMS4wIiBlbmNvZGluZz0idXMtYXNjaWkiIHN0YW5kYWxvbmU9Im5vIj8+PHN2ZyB4bWxucz0iaHR0cDovL3d3dy53My5vcmcvMjAwMC9zdmciIHhtbG5zOnhsaW5rPSJodHRwOi8vd3d3LnczLm9yZy8xOTk5L3hsaW5rIiBjb250ZW50U3R5bGVUeXBlPSJ0ZXh0L2NzcyIgaGVpZ2h0PSIxMzRweCIgcHJlc2VydmVBc3BlY3RSYXRpbz0ibm9uZSIgc3R5bGU9IndpZHRoOjE1OXB4O2hlaWdodDoxMzRweDtiYWNrZ3JvdW5kOiNGRkZGRkY7IiB2ZXJzaW9uPSIxLjEiIHZpZXdCb3g9IjAgMCAxNTkgMTM0IiB3aWR0aD0iMTU5cHgiIHpvb21BbmRQYW49Im1hZ25pZnkiPjxkZWZzLz48Zz48IS0tY2xhc3MgQ2xhc3NfbmFtZS0tPjxnIGlkPSJlbGVtX0NsYXNzX25hbWUiPjxyZWN0IGNvZGVMaW5lPSIxIiBmaWxsPSIjRjFGMUYxIiBoZWlnaHQ9IjExMy43NjU2IiBpZD0iQ2xhc3NfbmFtZSIgcng9IjIuNSIgcnk9IjIuNSIgc3R5bGU9InN0cm9rZTojMTgxODE4O3N0cm9rZS13aWR0aDowLjU7IiB3aWR0aD0iMTM4IiB4PSI3IiB5PSI3Ii8+PGVsbGlwc2UgY3g9IjM3Ljc1IiBjeT0iMjUuOTE0MSIgZmlsbD0iI0FERDFCMiIgcng9IjExIiByeT0iMTEiIHN0eWxlPSJzdHJva2U6IzE4MTgxODtzdHJva2Utd2lkdGg6MS4wOyIvPjxwYXRoIGQ9Ik0zNS4zNzUsMzAuMTY0MSBMMzUuMzc1LDMxLjkxNDEgTDQwLjMxMjUsMzEuOTE0MSBMNDAuMzEyNSwzMC4xNjQxIEwzNS4zNzUsMzAuMTY0MSBaIE0zNi4wNjI1LDMwLjg1MTYgUTM2LjA2MjUsMzAuODUxNiAzNi4wNjI1LDIxLjY2NDEgTDM0LjMxMjUsMjEuNjY0MSBRMzQuMzEyNSwyMS42NjQxIDM0LjMxMjUsMzAuODUxNiBMMzYuMDYyNSwzMC44NTE2IFogTTM5LjYyNSwzMC44NTE2IEw0MS4zNzUsMzAuODUxNiBRNDEuMzc1LDMwLjg1MTYgNDEuMzc1LDI4LjAzOTEgTDM5LjYyNSwyOC4wMzkxIFEzOS42MjUsMjguMDM5MSAzOS42MjUsMzAuODUxNiBaIE0zOS42MjUsMjEuNjY0MSBRMzkuNjI1LDIxLjY2NDEgMzkuNjI1LDI0LjQ3NjYgTDQxLjM3NSwyNC40NzY2IFE0MS4zNzUsMjQuNDc2NiA0MS4zNzUsMjEuNjY0MSBMMzkuNjI1LDIxLjY2NDEgWiBNMzUuMzc1LDIyLjM1MTYgTDQwLjMxMjUsMjIuMzUxNiBMNDAuMzEyNSwyMC42MDE2IEwzNS4zNzUsMjAuNjAxNiBMMzUuMzc1LDIyLjM1MTYgWiAiIGZpbGw9IiMwMDAwMDAiLz48dGV4dCBmaWxsPSIjMDAwMDAwIiBmb250LWZhbWlseT0ic2Fucy1zZXJpZiIgZm9udC1zaXplPSIxMiIgZm9udC1zdHlsZT0iaXRhbGljIiBsZW5ndGhBZGp1c3Q9InNwYWNpbmciIHRleHRMZW5ndGg9IjcxIiB4PSI1NS4yNSIgeT0iMjMuMzQzOCI+JiMxNzE7SW50ZXJmYWNlJiMxODc7PC90ZXh0Pjx0ZXh0IGZpbGw9IiMwMDAwMDAiIGZvbnQtZmFtaWx5PSJzYW5zLXNlcmlmIiBmb250LXNpemU9IjE0IiBsZW5ndGhBZGp1c3Q9InNwYWNpbmciIHRleHRMZW5ndGg9IjcxIiB4PSI1NS4yNSIgeT0iMzguMDc4MSI+Q2xhc3NfbmFtZTwvdGV4dD48bGluZSBzdHlsZT0ic3Ryb2tlOiMxODE4MTg7c3Ryb2tlLXdpZHRoOjAuNTsiIHgxPSI4IiB4Mj0iMTQ0IiB5MT0iNDQuODI4MSIgeTI9IjQ0LjgyODEiLz48ZWxsaXBzZSBjeD0iMTgiIGN5PSI1Ny44MjAzIiBmaWxsPSJub25lIiByeD0iMyIgcnk9IjMiIHN0eWxlPSJzdHJva2U6IzAzODA0ODtzdHJva2Utd2lkdGg6MS4wOyIvPjx0ZXh0IGZpbGw9IiMwMDAwMDAiIGZvbnQtZmFtaWx5PSJzYW5zLXNlcmlmIiBmb250LXNpemU9IjE0IiBsZW5ndGhBZGp1c3Q9InNwYWNpbmciIHRleHRMZW5ndGg9IjExMiIgeD0iMjciIHk9IjYyLjA2MjUiPnB1YmxpYyBBdHRyaWJ1dGU8L3RleHQ+PHJlY3QgZmlsbD0ibm9uZSIgaGVpZ2h0PSI2IiBzdHlsZT0ic3Ryb2tlOiNDODI5MzA7c3Ryb2tlLXdpZHRoOjEuMDsiIHdpZHRoPSI2IiB4PSIxNSIgeT0iNjkuODA0NyIvPjx0ZXh0IGZpbGw9IiMwMDAwMDAiIGZvbnQtZmFtaWx5PSJzYW5zLXNlcmlmIiBmb250LXNpemU9IjE0IiBsZW5ndGhBZGp1c3Q9InNwYWNpbmciIHRleHRMZW5ndGg9IjcwIiB4PSIyNyIgeT0iNzcuMDQ2OSI+QXR0cmlidXRlczwvdGV4dD48bGluZSBzdHlsZT0ic3Ryb2tlOiMxODE4MTg7c3Ryb2tlLXdpZHRoOjAuNTsiIHgxPSI4IiB4Mj0iMTQ0IiB5MT0iODIuNzk2OSIgeTI9IjgyLjc5NjkiLz48ZWxsaXBzZSBjeD0iMTgiIGN5PSI5NS43ODkxIiBmaWxsPSIjODRCRTg0IiByeD0iMyIgcnk9IjMiIHN0eWxlPSJzdHJva2U6IzAzODA0ODtzdHJva2Utd2lkdGg6MS4wOyIvPjx0ZXh0IGZpbGw9IiMwMDAwMDAiIGZvbnQtZmFtaWx5PSJzYW5zLXNlcmlmIiBmb250LXNpemU9IjE0IiBsZW5ndGhBZGp1c3Q9InNwYWNpbmciIHRleHRMZW5ndGg9IjU4IiB4PSIyNyIgeT0iMTAwLjAzMTMiPnB1YmxpYygpPC90ZXh0PjxyZWN0IGZpbGw9IiNGMjRENUMiIGhlaWdodD0iNiIgc3R5bGU9InN0cm9rZTojQzgyOTMwO3N0cm9rZS13aWR0aDoxLjA7IiB3aWR0aD0iNiIgeD0iMTUiIHk9IjEwNy43NzM0Ii8+PHRleHQgZmlsbD0iIzAwMDAwMCIgZm9udC1mYW1pbHk9InNhbnMtc2VyaWYiIGZvbnQtc2l6ZT0iMTQiIGxlbmd0aEFkanVzdD0ic3BhY2luZyIgdGV4dExlbmd0aD0iNjUiIHg9IjI3IiB5PSIxMTUuMDE1NiI+cHJpdmF0ZSgpPC90ZXh0PjwvZz48IS0tU1JDPVtJeXY5QjJ2TVMwUUh5TmM5a1FhQURaUVVVSU1mSE1jOW9RYnNUYnBMTjBlQXNXZTVmS2F2Y1NhQVpZS2JIUGI5ZklNZkc0NVQxQS1PMnFjSFhZUE9pZzBlaW9vbjkxTkN1d2U1MDAwMF0tLT48L2c+PC9zdmc+;strokeColor=#FF3333;imageBackground=#F9F7ED;fillStyle=auto;" parent="1" vertex="1">
            <mxGeometry x="560" y="165" width="159" height="134" as="geometry" />
          </mxCell>
        </UserObject>
        <mxCell id="fNJLwbQvEekjFqsQkFxo-51" value="&lt;font style=&quot;font-size: 36px;&quot;&gt;Veterinary Project&lt;/font&gt;" style="text;html=1;strokeColor=#36393d;fillColor=#cce5ff;align=center;verticalAlign=middle;whiteSpace=wrap;rounded=0;fontColor=#000066;" parent="1" vertex="1">
          <mxGeometry x="540" y="8" width="280" height="102" as="geometry" />
        </mxCell>
        <mxCell id="fNJLwbQvEekjFqsQkFxo-52" value="" style="endArrow=diamond;html=1;rounded=0;entryX=0.004;entryY=0.307;entryDx=0;entryDy=0;entryPerimeter=0;endFill=1;" parent="1" target="kbrCUC_pbYBXq86tmqO2-50" edge="1">
          <mxGeometry width="50" height="50" relative="1" as="geometry">
            <mxPoint x="-80" y="83" as="sourcePoint" />
            <mxPoint x="-10" y="43" as="targetPoint" />
          </mxGeometry>
        </mxCell>
        <mxCell id="uYADebYyoeD6eWLToY8Z-1" value="animal" style="edgeLabel;html=1;align=center;verticalAlign=middle;resizable=0;points=[];fontSize=16;" parent="fNJLwbQvEekjFqsQkFxo-52" vertex="1" connectable="0">
          <mxGeometry x="0.0418" y="-1" relative="1" as="geometry">
            <mxPoint x="-1" y="-12" as="offset" />
          </mxGeometry>
        </mxCell>
        <mxCell id="fNJLwbQvEekjFqsQkFxo-54" value="1" style="text;html=1;align=center;verticalAlign=middle;resizable=0;points=[];autosize=1;strokeColor=none;fillColor=none;" parent="1" vertex="1">
          <mxGeometry x="-81.5" y="58.38" width="30" height="30" as="geometry" />
        </mxCell>
        <mxCell id="fNJLwbQvEekjFqsQkFxo-55" value="1" style="text;html=1;align=center;verticalAlign=middle;resizable=0;points=[];autosize=1;strokeColor=none;fillColor=none;" parent="1" vertex="1">
          <mxGeometry x="52" y="58.38" width="30" height="30" as="geometry" />
        </mxCell>
        <mxCell id="fNJLwbQvEekjFqsQkFxo-58" value="" style="edgeStyle=orthogonalEdgeStyle;rounded=0;orthogonalLoop=1;jettySize=auto;html=1;exitX=1;exitY=0.5;exitDx=0;exitDy=0;entryX=0;entryY=0.5;entryDx=0;entryDy=0;endArrow=diamond;endFill=1;" parent="1" source="kbrCUC_pbYBXq86tmqO2-51" target="kbrCUC_pbYBXq86tmqO2-50" edge="1">
          <mxGeometry relative="1" as="geometry">
            <mxPoint x="-97" y="553" as="sourcePoint" />
            <mxPoint x="80" y="120" as="targetPoint" />
            <Array as="points">
              <mxPoint x="-50" y="553" />
              <mxPoint x="-50" y="120" />
            </Array>
          </mxGeometry>
        </mxCell>
        <mxCell id="uYADebYyoeD6eWLToY8Z-2" value="owner identify" style="edgeLabel;html=1;align=center;verticalAlign=middle;resizable=0;points=[];fontSize=16;" parent="fNJLwbQvEekjFqsQkFxo-58" vertex="1" connectable="0">
          <mxGeometry x="0.6398" y="1" relative="1" as="geometry">
            <mxPoint x="16" y="-11" as="offset" />
          </mxGeometry>
        </mxCell>
        <mxCell id="fNJLwbQvEekjFqsQkFxo-57" value="1" style="text;html=1;align=center;verticalAlign=middle;resizable=0;points=[];autosize=1;strokeColor=none;fillColor=none;" parent="1" vertex="1">
          <mxGeometry x="-82" y="527.5" width="30" height="30" as="geometry" />
        </mxCell>
        <mxCell id="fNJLwbQvEekjFqsQkFxo-60" value="1" style="text;html=1;align=center;verticalAlign=middle;resizable=0;points=[];autosize=1;strokeColor=none;fillColor=none;" parent="1" vertex="1">
          <mxGeometry x="52" y="95.38" width="30" height="30" as="geometry" />
        </mxCell>
        <mxCell id="uYADebYyoeD6eWLToY8Z-4" style="edgeStyle=none;curved=1;rounded=0;orthogonalLoop=1;jettySize=auto;html=1;exitX=0.5;exitY=1;exitDx=0;exitDy=0;fontSize=12;startSize=8;endSize=8;dashed=1;dashPattern=8 8;startArrow=open;startFill=0;endArrow=none;endFill=0;" parent="1" source="kbrCUC_pbYBXq86tmqO2-53" edge="1">
          <mxGeometry relative="1" as="geometry">
            <mxPoint x="-686" y="820" as="targetPoint" />
          </mxGeometry>
        </mxCell>
        <mxCell id="uYADebYyoeD6eWLToY8Z-5" value="authorize" style="edgeLabel;html=1;align=center;verticalAlign=middle;resizable=0;points=[];fontSize=16;" parent="uYADebYyoeD6eWLToY8Z-4" vertex="1" connectable="0">
          <mxGeometry x="0.0042" y="3" relative="1" as="geometry">
            <mxPoint y="1" as="offset" />
          </mxGeometry>
        </mxCell>
        <mxCell id="uYADebYyoeD6eWLToY8Z-12" value="1" style="text;html=1;strokeColor=none;fillColor=none;align=center;verticalAlign=middle;whiteSpace=wrap;rounded=0;fontSize=11;" parent="1" vertex="1">
          <mxGeometry x="339" y="780" width="60" height="30" as="geometry" />
        </mxCell>
        <mxCell id="uYADebYyoeD6eWLToY8Z-14" value="1" style="text;html=1;strokeColor=none;fillColor=none;align=center;verticalAlign=middle;whiteSpace=wrap;rounded=0;fontSize=11;" parent="1" vertex="1">
          <mxGeometry x="282" y="800" width="32" height="26" as="geometry" />
        </mxCell>
        <mxCell id="uYADebYyoeD6eWLToY8Z-22" style="edgeStyle=orthogonalEdgeStyle;rounded=0;orthogonalLoop=1;jettySize=auto;html=1;exitX=0;exitY=0.5;exitDx=0;exitDy=0;entryX=0.17;entryY=1.008;entryDx=0;entryDy=0;entryPerimeter=0;fontSize=12;startSize=8;endSize=8;endArrow=none;endFill=0;" parent="1" source="kbrCUC_pbYBXq86tmqO2-65" edge="1">
          <mxGeometry relative="1" as="geometry">
            <mxPoint x="136.01" y="219.05200000000002" as="targetPoint" />
          </mxGeometry>
        </mxCell>
        <mxCell id="uYADebYyoeD6eWLToY8Z-23" value="1" style="edgeLabel;html=1;align=center;verticalAlign=middle;resizable=0;points=[];fontSize=11;" parent="uYADebYyoeD6eWLToY8Z-22" vertex="1" connectable="0">
          <mxGeometry x="0.1019" relative="1" as="geometry">
            <mxPoint x="-9" y="-66" as="offset" />
          </mxGeometry>
        </mxCell>
        <mxCell id="uYADebYyoeD6eWLToY8Z-24" value="1" style="edgeLabel;html=1;align=center;verticalAlign=middle;resizable=0;points=[];fontSize=11;" parent="uYADebYyoeD6eWLToY8Z-22" vertex="1" connectable="0">
          <mxGeometry x="0.1019" relative="1" as="geometry">
            <mxPoint x="21" y="68" as="offset" />
          </mxGeometry>
        </mxCell>
        <mxCell id="uYADebYyoeD6eWLToY8Z-38" value="" style="shape=curlyBracket;whiteSpace=wrap;html=1;rounded=1;flipH=1;labelPosition=right;verticalLabelPosition=middle;align=left;verticalAlign=middle;fontSize=16;fontColor=#666600;strokeColor=#666600;" parent="1" vertex="1">
          <mxGeometry x="719" y="215" width="20" height="30" as="geometry" />
        </mxCell>
        <mxCell id="uYADebYyoeD6eWLToY8Z-39" value="" style="shape=curlyBracket;whiteSpace=wrap;html=1;rounded=1;flipH=1;labelPosition=right;verticalLabelPosition=middle;align=left;verticalAlign=middle;fontSize=16;fontColor=#666600;strokeColor=#666600;" parent="1" vertex="1">
          <mxGeometry x="719" y="251" width="20" height="30" as="geometry" />
        </mxCell>
        <mxCell id="uYADebYyoeD6eWLToY8Z-40" value="" style="shape=curlyBracket;whiteSpace=wrap;html=1;rounded=1;flipH=1;labelPosition=right;verticalLabelPosition=middle;align=left;verticalAlign=middle;fontSize=16;fontColor=#666600;strokeColor=#666600;" parent="1" vertex="1">
          <mxGeometry x="678" y="365" width="20" height="30" as="geometry" />
        </mxCell>
        <mxCell id="uYADebYyoeD6eWLToY8Z-41" value="" style="shape=curlyBracket;whiteSpace=wrap;html=1;rounded=1;flipH=1;labelPosition=right;verticalLabelPosition=middle;align=left;verticalAlign=middle;fontSize=16;fontColor=#666600;strokeColor=#666600;" parent="1" vertex="1">
          <mxGeometry x="678" y="339" width="20" height="19" as="geometry" />
        </mxCell>
        <mxCell id="uYADebYyoeD6eWLToY8Z-42" value="Arrtibutes" style="text;html=1;align=center;verticalAlign=middle;resizable=0;points=[];autosize=1;strokeColor=none;fillColor=none;fontSize=13;fontColor=#666600;" parent="1" vertex="1">
          <mxGeometry x="730" y="215" width="80" height="30" as="geometry" />
        </mxCell>
        <mxCell id="uYADebYyoeD6eWLToY8Z-43" value="Methods" style="text;html=1;align=center;verticalAlign=middle;resizable=0;points=[];autosize=1;strokeColor=none;fillColor=none;fontSize=13;fontColor=#666600;" parent="1" vertex="1">
          <mxGeometry x="733" y="251" width="70" height="30" as="geometry" />
        </mxCell>
        <mxCell id="uYADebYyoeD6eWLToY8Z-44" value="Values" style="text;html=1;align=center;verticalAlign=middle;resizable=0;points=[];autosize=1;strokeColor=none;fillColor=none;fontSize=13;fontColor=#666600;" parent="1" vertex="1">
          <mxGeometry x="692" y="333.5" width="60" height="30" as="geometry" />
        </mxCell>
        <mxCell id="uYADebYyoeD6eWLToY8Z-45" value="Methods" style="text;html=1;align=center;verticalAlign=middle;resizable=0;points=[];autosize=1;strokeColor=none;fillColor=none;fontSize=13;fontColor=#666600;" parent="1" vertex="1">
          <mxGeometry x="692" y="365" width="70" height="30" as="geometry" />
        </mxCell>
        <mxCell id="uYADebYyoeD6eWLToY8Z-49" value="Notation Reference" style="text;html=1;strokeColor=none;fillColor=none;align=center;verticalAlign=middle;whiteSpace=wrap;rounded=0;fontSize=19;fontColor=#666600;" parent="1" vertex="1">
          <mxGeometry x="595" y="129" width="170" height="30" as="geometry" />
        </mxCell>
        <mxCell id="p7_nWBQ-ZVWn6PP9H5Ea-1" value="&lt;u&gt;Prepared by&lt;/u&gt;&lt;br&gt;&lt;div style=&quot;&quot;&gt;Name : Panatda Pongkasemwiwat&lt;/div&gt;&lt;div style=&quot;&quot;&gt;Matriculation no : 813796&lt;/div&gt;&lt;div style=&quot;&quot;&gt;Automotive Software Engineering&#39;s student&lt;/div&gt;&lt;div style=&quot;text-align: right;&quot;&gt;01.02.2024&lt;/div&gt;&lt;div style=&quot;&quot;&gt;&amp;nbsp;&lt;/div&gt;" style="text;html=1;strokeColor=none;fillColor=#fff2cc;align=left;verticalAlign=top;whiteSpace=wrap;rounded=0;horizontal=1;" vertex="1" parent="1">
          <mxGeometry x="550" y="417" width="260" height="77" as="geometry" />
        </mxCell>
      </root>
    </mxGraphModel>
  </diagram>
</mxfile>
